<svg width="353" height="230" viewBox="0 0 353 230" fill="none" xmlns="http://www.w3.org/2000/svg">
<path d="M283.813 71.1253L283.559 70.8652C283.528 70.8363 280.451 67.7328 277.97 68.2818C275.489 68.8309 275.013 70.3855 274.992 70.4549L274.5 70.27C274.5 70.189 275.111 68.3339 277.867 67.7155C280.203 67.1953 282.839 69.4493 283.657 70.1948C284.175 69.091 286.019 65.6233 287.93 65.3575C290.132 65.0512 292.514 67.0913 292.592 67.1838L292.276 67.6403C292.25 67.6403 289.951 65.6522 287.972 65.9065C285.993 66.1608 283.963 70.715 283.942 70.7612L283.813 71.1253Z" fill="#304569"/>
<path d="M276.938 82.331L276.685 82.071C276.654 82.0421 273.577 78.9327 271.096 79.4876C268.615 80.0424 268.144 81.5913 268.123 81.6548L267.631 81.4699C267.631 81.3948 268.237 79.5396 270.998 78.9212C273.328 78.401 275.965 80.655 276.783 81.4005C277.301 80.2967 279.145 76.8233 281.056 76.5574C283.263 76.2569 285.64 78.2912 285.718 78.3895L285.402 78.8461C285.402 78.8461 283.081 76.8522 281.103 77.1122C279.124 77.3723 277.094 81.9207 277.073 81.9669L276.938 82.331Z" fill="#304569"/>
<path d="M299.9 82.3309L299.646 82.0708C299.646 82.0708 297.31 79.7071 295.445 80.1232C293.581 80.5393 293.244 81.6778 293.228 81.7298L292.736 81.5449C292.736 81.4813 293.213 80.0307 295.326 79.5568C297.066 79.1696 299.035 80.7705 299.723 81.4062C300.174 80.4873 301.547 77.9386 302.987 77.7536C304.685 77.5224 306.519 79.0944 306.612 79.1638L306.296 79.6204C306.296 79.6204 304.556 78.1177 303.064 78.3316C301.863 78.4992 300.475 81.0248 300.05 81.9899L299.9 82.3309Z" fill="#304569"/>
<path d="M326.91 94.1275L326.656 93.8674C326.656 93.8674 325.149 92.3532 323.978 92.6133C322.808 92.8733 322.601 93.5726 322.59 93.6015L322.072 93.4166C322.072 93.3762 322.404 92.3705 323.854 92.0469C324.968 91.7984 326.206 92.7404 326.729 93.2028C327.076 92.5092 327.941 90.995 328.883 90.891C330.023 90.7234 331.266 91.7868 331.318 91.8331L331.002 92.2896C331.002 92.2896 329.873 91.3302 328.93 91.4632C328.179 91.5672 327.298 93.197 327.019 93.8096L326.91 94.1275Z" fill="#304569"/>
<path d="M199.235 80.7464H95.7793L96.059 80.2956C96.1729 80.1106 98.8508 75.8628 102.223 76.2038C102.777 76.2616 103.305 76.3251 103.776 76.3887C106.164 76.6835 107.889 76.8973 108.785 75.6489C109.117 75.0726 109.296 74.4036 109.303 73.7186C109.453 72.372 109.619 70.8289 111.846 69.9389C113.167 69.4014 114.54 69.8118 115.865 70.2105C117.285 70.6382 118.626 71.0428 119.807 70.2914C120.988 69.5401 121.2 68.0317 121.418 66.4366C121.5 65.3341 121.784 64.2621 122.252 63.2868C123.676 60.819 126.784 59.5013 129.011 59.5013H129.053C130.555 59.5013 131.901 60.2815 133.196 61.0155C134.678 61.8593 136.081 62.6569 137.64 62.3563C138.127 62.2213 138.577 61.9567 138.952 61.5854C139.328 61.214 139.617 60.7468 139.795 60.2237C140.28 58.8905 140.636 57.5033 140.857 56.0857C141.312 53.6526 141.742 51.3524 143.819 49.2198C146.208 46.889 149.173 45.4201 152.324 45.0066C165.045 42.9954 179.097 53.5543 181.816 67.1706C181.816 67.2804 182.396 69.9216 184.525 69.9216C185.267 69.8418 185.996 69.6473 186.69 69.3436C189.321 68.3727 193.294 66.8989 196.298 72.0599C200.126 78.6311 199.365 80.4458 199.266 80.6308L199.235 80.7464ZM96.7997 80.1684H198.898C198.976 79.6541 198.976 77.6139 195.91 72.3489C193.123 67.5694 189.523 68.8813 186.897 69.8696C186.153 70.2024 185.37 70.4145 184.572 70.4995C182.024 70.4995 181.366 67.3324 181.355 67.2977C178.693 53.9531 164.916 43.6022 152.443 45.5788C149.397 45.9702 146.528 47.3805 144.213 49.6243C142.266 51.6298 141.851 53.8375 141.411 56.1782C141.184 57.6355 140.817 59.0616 140.318 60.4318C140.11 61.0462 139.769 61.5935 139.325 62.0251C138.881 62.4567 138.349 62.7591 137.775 62.9054C136.045 63.2348 134.501 62.3274 133.005 61.5068C131.761 60.8017 130.472 60.0677 129.094 60.0562H129.053C126.934 60.0562 124.008 61.3681 122.728 63.5758C122.298 64.4983 122.041 65.5091 121.972 66.5464C121.744 68.2051 121.506 69.9216 120.102 70.8116C118.699 71.7016 117.228 71.2335 115.772 70.8116C114.524 70.4359 113.229 70.0487 112.064 70.5226C110.137 71.3028 109.992 72.5281 109.862 73.8284C109.84 74.6237 109.616 75.3954 109.215 76.0535C108.143 77.5504 106.2 77.3076 103.745 77.0013C103.227 76.9377 102.709 76.8742 102.192 76.8222C99.7261 76.5274 97.5766 79.0992 96.7997 80.1684Z" fill="#304569"/>
<path d="M217.406 50.8438H175.514L175.793 50.3872C175.84 50.3121 176.964 48.5262 178.383 48.6534L179.02 48.7285C180.02 48.8557 180.6 48.9019 180.89 48.4973C181.008 48.2922 181.071 48.0535 181.071 47.8096C181.073 47.4347 181.183 47.0704 181.386 46.7714C181.588 46.4723 181.872 46.2546 182.195 46.1509C182.759 45.9855 183.355 46.0219 183.899 46.2549C184.363 46.4841 184.889 46.5028 185.365 46.3069C185.774 46.0411 185.847 45.5036 185.935 44.8852C185.967 44.4169 186.089 43.9617 186.292 43.5502C186.626 43.0612 187.055 42.6635 187.546 42.3871C188.038 42.1107 188.58 41.963 189.131 41.9551C189.743 42.0073 190.336 42.2212 190.861 42.5792C191.358 42.9525 191.951 43.1351 192.549 43.0994C192.719 43.0498 192.875 42.9558 193.006 42.8251C193.137 42.6944 193.238 42.5309 193.3 42.3481C193.488 41.8221 193.627 41.2759 193.715 40.7183C193.823 39.6402 194.26 38.6363 194.952 37.8748C195.934 36.9162 197.153 36.3117 198.449 36.141C203.628 35.3203 209.326 39.6086 210.45 45.1684C210.45 45.2089 210.662 46.1336 211.387 46.1336C211.668 46.0974 211.943 46.0197 212.205 45.9024C213.309 45.4978 214.966 44.8794 216.24 47.0583C217.758 49.6648 217.535 50.4912 217.432 50.6819L217.406 50.8438ZM176.56 50.2658H217.038C217.038 49.9595 216.867 49.1099 215.852 47.3761C214.837 45.6423 213.48 46.0584 212.418 46.4514C212.103 46.5914 211.771 46.6791 211.434 46.7115C211.084 46.6902 210.751 46.5376 210.488 46.2784C210.226 46.0193 210.05 45.6689 209.989 45.284C208.953 40.019 203.488 35.9329 198.568 36.7132C197.375 36.8698 196.252 37.4236 195.346 38.3025C194.732 38.9817 194.351 39.8794 194.269 40.8396C194.174 41.4331 194.025 42.0141 193.823 42.5735C193.728 42.8459 193.575 43.0881 193.376 43.2786C193.177 43.4691 192.94 43.6021 192.684 43.6658C191.975 43.7302 191.267 43.5266 190.674 43.0878C190.219 42.7706 189.706 42.573 189.172 42.5099C188.705 42.5098 188.243 42.6297 187.824 42.8602C187.405 43.0906 187.038 43.4256 186.753 43.8391C186.594 44.1843 186.499 44.5617 186.474 44.9488C186.38 45.6192 186.272 46.3821 185.645 46.7809C185.018 47.1796 184.407 46.9774 183.791 46.7809C183.347 46.5863 182.862 46.544 182.397 46.6595C182.168 46.7239 181.966 46.8736 181.824 47.0838C181.682 47.294 181.608 47.5521 181.615 47.8154C181.605 48.1662 181.502 48.506 181.32 48.7921C180.838 49.4683 180.02 49.37 178.989 49.2371L178.362 49.1677C177.622 49.1677 176.943 49.7861 176.56 50.2658Z" fill="#304569"/>
<path d="M305.406 118.146H263.514L263.799 117.695C263.845 117.62 264.969 115.828 266.388 115.961L267.025 116.036C268.025 116.158 268.579 116.21 268.895 115.805C269.013 115.599 269.078 115.361 269.082 115.117C269.083 114.743 269.192 114.379 269.394 114.08C269.596 113.781 269.879 113.563 270.2 113.459C270.764 113.29 271.361 113.326 271.904 113.563C272.369 113.793 272.895 113.81 273.37 113.609C273.779 113.349 273.852 112.811 273.94 112.187C273.975 111.721 274.097 111.268 274.297 110.858C274.633 110.366 275.065 109.966 275.561 109.69C276.057 109.413 276.602 109.267 277.157 109.263C277.778 109.314 278.38 109.53 278.912 109.893C279.41 110.264 280.003 110.446 280.601 110.413C280.77 110.363 280.926 110.269 281.055 110.138C281.185 110.007 281.285 109.844 281.347 109.661C281.536 109.136 281.675 108.59 281.761 108.032C281.87 106.954 282.307 105.95 282.999 105.188C283.98 104.227 285.199 103.623 286.495 103.454C291.675 102.634 297.372 106.922 298.496 112.476C298.496 112.522 298.709 113.447 299.434 113.447C299.714 113.409 299.989 113.331 300.252 113.216C301.355 112.805 303.018 112.193 304.287 114.372C305.804 116.972 305.582 117.805 305.483 117.995L305.406 118.146ZM264.56 117.568H305.038C305.038 117.267 304.867 116.441 303.852 114.678C302.837 112.915 301.48 113.36 300.418 113.753C300.103 113.893 299.771 113.981 299.434 114.013C299.085 113.991 298.754 113.839 298.493 113.581C298.232 113.323 298.056 112.975 297.994 112.592C296.958 107.321 291.499 103.229 286.568 104.015C285.375 104.167 284.252 104.719 283.346 105.599C282.736 106.281 282.355 107.177 282.269 108.136C282.175 108.729 282.025 109.31 281.823 109.87C281.73 110.142 281.577 110.385 281.379 110.577C281.181 110.768 280.944 110.903 280.689 110.968C279.979 111.027 279.271 110.824 278.674 110.39C278.222 110.067 277.707 109.869 277.172 109.812C276.708 109.819 276.251 109.942 275.835 110.172C275.419 110.402 275.055 110.733 274.769 111.141C274.61 111.486 274.515 111.864 274.489 112.251C274.396 112.921 274.287 113.684 273.666 114.083C273.044 114.481 272.422 114.279 271.806 114.083C271.364 113.885 270.877 113.843 270.413 113.961C270.179 114.027 269.974 114.181 269.831 114.397C269.688 114.613 269.617 114.878 269.631 115.146C269.618 115.496 269.518 115.834 269.341 116.123C268.854 116.799 268.035 116.701 267.005 116.568C266.808 116.568 266.595 116.516 266.378 116.498C265.622 116.475 264.928 117.111 264.56 117.568Z" fill="#304569"/>
<path d="M242.967 114.954H179.145L179.429 114.503C179.497 114.387 181.17 111.723 183.304 111.943L184.277 112.053C185.712 112.232 186.753 112.365 187.266 111.642C187.465 111.297 187.573 110.897 187.577 110.486C187.57 109.94 187.726 109.407 188.02 108.971C188.315 108.535 188.731 108.22 189.203 108.076C190.042 107.735 190.902 107.99 191.731 108.238C192.559 108.487 193.388 108.741 194.077 108.296C194.766 107.851 194.89 106.961 195.02 106.013C195.069 105.32 195.245 104.645 195.538 104.031C196.429 102.482 198.381 101.656 199.775 101.656C200.691 101.742 201.578 102.065 202.364 102.598C203.266 103.106 204.11 103.586 205.037 103.412C205.32 103.332 205.581 103.176 205.798 102.959C206.015 102.742 206.183 102.469 206.285 102.164C206.579 101.351 206.796 100.507 206.933 99.6443C207.218 98.1301 207.482 96.7026 208.782 95.3675C210.265 93.9195 212.107 93.0067 214.065 92.7495C221.922 91.5069 230.613 98.0318 232.297 106.452C232.328 106.614 232.67 108.059 233.851 108.059C234.297 108.005 234.734 107.883 235.151 107.695C236.798 107.088 239.294 106.163 241.169 109.429C243.51 113.44 243.101 114.63 242.998 114.815L242.967 114.954ZM180.175 114.376H242.62C242.62 113.989 242.516 112.717 240.781 109.752C239.113 106.863 237.031 107.655 235.363 108.273C234.894 108.481 234.4 108.614 233.897 108.666C232.608 108.666 231.986 107.377 231.825 106.614C230.199 98.4711 221.788 92.1657 214.174 93.3563C212.32 93.5961 210.575 94.4587 209.17 95.8299C207.994 97.032 207.751 98.315 207.477 99.7945C207.334 100.697 207.107 101.581 206.798 102.43C206.664 102.824 206.444 103.175 206.158 103.451C205.873 103.728 205.53 103.921 205.161 104.013C204.063 104.222 203.089 103.678 202.167 103.147C201.451 102.655 200.643 102.354 199.806 102.268C198.526 102.268 196.755 103.043 195.983 104.378C195.73 104.916 195.577 105.506 195.533 106.111C195.388 107.157 195.237 108.238 194.336 108.81C193.435 109.383 192.513 109.088 191.596 108.81C190.809 108.573 190.068 108.348 189.379 108.631C188.25 109.088 188.178 109.787 188.09 110.567C188.077 111.079 187.932 111.575 187.67 111.995C186.976 112.96 185.759 112.81 184.22 112.619L183.257 112.503C181.921 112.376 180.729 113.665 180.175 114.376Z" fill="#304569"/>
<path d="M246.94 203.461C246.94 203.461 243.164 199.097 244.221 199.224C245.277 199.352 247.266 202.623 247.266 202.623C247.266 202.623 247.292 195.427 248.235 196.999C249.177 198.571 248.022 202.652 248.022 202.652C248.022 202.652 250.716 197.965 250.711 198.727C250.711 201.097 248.639 202.952 248.639 202.952C248.639 202.952 252.953 199.386 252.264 200.831C251.575 202.276 248.799 203.646 248.799 203.646C248.799 203.646 253.772 202.524 252.005 203.316C250.239 204.108 248.561 204.646 248.561 204.646H247.183C247.183 204.646 242.491 202.016 244.257 202.409C245.197 202.593 246.103 202.949 246.94 203.461Z" fill="#304569"/>
<path d="M296.812 189.798C296.812 189.798 293.87 186.4 294.699 186.504C295.528 186.608 297.066 189.145 297.066 189.145C297.066 189.145 297.066 183.545 297.822 184.77C298.578 185.996 297.651 189.168 297.651 189.168C297.651 189.168 299.749 185.522 299.723 186.117C299.723 187.961 298.107 189.405 298.107 189.405C298.107 189.405 301.463 186.626 300.914 187.752C300.365 188.879 298.221 189.943 298.221 189.943C298.221 189.943 302.09 189.07 300.712 189.683C299.335 190.295 298.029 190.717 298.029 190.717H296.962C296.962 190.717 293.306 188.671 294.683 188.984C295.428 189.123 296.147 189.398 296.812 189.798Z" fill="#304569"/>
<path d="M343.138 177.609C343.138 177.609 340.201 174.211 341.024 174.315C341.848 174.419 343.391 176.956 343.391 176.956C343.391 176.956 343.391 171.356 344.148 172.581C344.904 173.806 343.982 176.979 343.982 176.979C343.982 176.979 346.054 173.332 346.054 173.928C346.054 175.771 344.438 177.216 344.438 177.216C344.438 177.216 347.794 174.442 347.245 175.563C346.696 176.684 344.546 177.754 344.546 177.754C344.546 177.754 348.416 176.881 347.043 177.494C345.67 178.106 344.36 178.528 344.36 178.528H343.288C343.288 178.528 339.662 176.482 341.009 176.794C341.754 176.932 342.473 177.208 343.138 177.609Z" fill="#304569"/>
<path d="M284.092 205.45C284.092 205.45 280.58 201.404 281.569 201.514C282.559 201.624 284.397 204.67 284.397 204.67C284.397 204.67 284.397 197.983 285.299 199.468C286.2 200.954 285.128 204.676 285.128 204.676C285.128 204.676 287.635 200.318 287.629 201.029C287.629 203.231 285.697 204.953 285.697 204.953C285.697 204.953 289.706 201.641 289.049 202.982C288.391 204.323 285.832 205.6 285.832 205.6C285.832 205.6 290.452 204.56 288.81 205.294C287.168 206.028 285.604 206.525 285.604 206.525H284.33C284.33 206.525 279.964 204.086 281.606 204.45C282.477 204.632 283.317 204.97 284.092 205.45Z" fill="#3636F0"/>
<path d="M214.437 188.036L183.541 149.384L176.71 155.481L142.597 98.1781L112.939 105.553L104.051 87.0297L95.4275 86.5211L79.1897 50.7813L54.9081 75.5056L43.1454 70.8185L0.367746 119.481L0 119.076L43.0056 70.1481L54.789 74.8467L79.3451 49.8451L95.7538 85.9605L104.367 86.4691L113.209 104.894L142.836 97.5308L142.934 97.6926L176.829 154.637L183.598 148.592L214.826 187.649L214.437 188.036Z" fill="#304569"/>
<path d="M217.392 190.873L217.006 191.258L220.264 195.334L220.65 194.949L217.392 190.873Z" fill="#304569"/>
<path d="M97.0948 109.686L94.5254 110.464L94.661 111.022L97.2304 110.244L97.0948 109.686Z" fill="#304569"/>
<path d="M112.948 104.893L99.9863 108.817L100.122 109.374L113.084 105.45L112.948 104.893Z" fill="#304569"/>
<path d="M64.3147 88.7121L63.8848 88.3885L71.0895 76.5234L70.6026 72.4431L70.6337 72.3622L78.9675 53.4925L79.4337 53.7468L71.1361 72.5414L71.6281 76.6621L64.3147 88.7121Z" fill="#304569"/>
<path d="M62.6738 90.3809L60.8535 93.3819L61.2825 93.7059L63.1027 90.7049L62.6738 90.3809Z" fill="#304569"/>
<path d="M49.594 100.442L37.8164 118.254L38.2332 118.597L50.0108 100.786L49.594 100.442Z" fill="#304569"/>
<path d="M51.0915 99.1554L50.6719 98.8145L52.231 96.4565L52.9509 86.0189L46.3936 80.0546L43.4258 72.6107L43.8971 72.3737L46.8132 79.6962L53.4896 85.7646L52.7386 96.6645L51.0915 99.1554Z" fill="#304569"/>
<path d="M98.0168 93.7342L95.6445 89.3245L96.09 89.024L98.1307 92.821L104.03 86.5388L104.388 86.9549L98.0168 93.7342Z" fill="#304569"/>
<path d="M217.647 186.18L217.311 185.741L226.344 177.101L244.172 181.366L271.846 138.136L272.027 138.206L289.715 144.788L304.223 121.937L304.435 122.098L352.097 159.613L351.797 160.086L304.347 122.74L289.917 145.47L272.043 138.824L244.399 182.013L226.483 177.731L217.647 186.18Z" fill="#304569"/>
<path d="M298.802 150.533L291.836 147.135L292.043 146.603L298.44 149.724L304.034 122.272L304.541 122.399L298.802 150.533Z" fill="#304569"/>
<path d="M258.283 185.875L248.457 183.973L248.545 183.401L257.936 185.222L271.853 140.021L272.345 140.206L258.283 185.875Z" fill="#304569"/>
<path d="M271.455 136.867C268.515 136.855 265.603 137.49 262.884 138.734C260.165 139.979 257.692 141.809 255.606 144.12C253.521 146.43 251.864 149.177 250.729 152.203C249.595 155.228 249.006 158.473 248.996 161.753C248.986 167.879 251.017 173.79 254.694 178.339C257.336 177.92 260.031 178.195 262.561 179.143C265.387 180.194 267.987 181.889 270.196 184.119H272.211C274.422 181.889 277.023 180.195 279.851 179.143C282.517 178.14 285.364 177.89 288.138 178.415C291.865 173.862 293.933 167.919 293.934 161.753C293.923 158.471 293.333 155.225 292.197 152.198C291.061 149.171 289.402 146.424 287.315 144.113C285.227 141.802 282.752 139.973 280.031 138.729C277.309 137.486 274.395 136.853 271.455 136.867Z" fill="#3636F0"/>
<path d="M281.907 171.733C281.216 172.118 280.526 172.503 279.835 172.889C279.158 173.298 278.503 173.749 277.872 174.241C277.639 174.42 277.411 174.611 277.178 174.819L280.861 167.173L275.811 175.992C275.293 176.455 274.775 176.923 274.303 177.402C273.492 178.173 272.698 178.982 271.921 179.83L271.662 171.536L276.945 162.561L271.662 170.259L271.429 162.838L271.035 171.155L270.657 179.477C269.978 178.766 269.295 178.073 268.585 177.391C268.031 176.853 267.466 176.322 266.891 175.813L262.116 166.711L265.622 174.738C265.42 174.576 265.224 174.409 265.016 174.253C264.386 173.761 263.73 173.309 263.053 172.9C262.38 172.502 261.691 172.114 260.982 171.744C259.599 170.991 258.182 170.321 256.734 169.739C258.135 170.426 259.501 171.197 260.826 172.051C261.489 172.467 262.142 172.895 262.784 173.334C263.415 173.775 264.022 174.257 264.602 174.779C265.757 175.81 266.859 176.914 267.901 178.084C268.813 179.096 269.704 180.148 270.553 181.205L270.108 191.735H272.32L272.004 181.598C272.951 180.385 273.961 179.194 274.997 178.044C276.04 176.873 277.142 175.769 278.297 174.738C278.877 174.217 279.484 173.735 280.115 173.293C280.757 172.854 281.41 172.426 282.073 172.01C283.399 171.157 284.767 170.385 286.17 169.699C284.716 170.289 283.293 170.968 281.907 171.733Z" fill="#304569"/>
<path d="M99.0311 171.017C99.0311 178.166 95.4365 178.704 91.0029 178.704C86.5692 178.704 82.9746 178.166 82.9746 171.017C82.9746 163.868 86.5692 148.917 91.0029 148.917C95.4365 148.917 99.0311 163.862 99.0311 171.017Z" fill="#3636F0"/>
<path d="M93.7177 174.259L92.3917 174.363L95.8465 171.762L93.381 173.155L93.7177 172.062L92.5886 173.6L91.2626 174.345L91.159 169.213L91.8634 167.312L91.1435 168.381L91.0813 165.405L93.2826 162.128L91.0658 164.659L90.9311 158.105L90.812 162.301L89.4032 160.544L90.7913 163.104L90.6048 169.751L89.3721 168.855L88.2533 166.641L88.7039 168.364L86.5078 166.763L90.5789 170.681L89.9626 192.487H91.6355L91.2833 175.195L91.6718 174.906L93.7177 174.259Z" fill="#304569"/>
<path d="M314.918 146.39C314.918 160.359 307.895 161.417 299.234 161.417C290.574 161.417 283.551 160.359 283.551 146.39C283.551 132.421 290.569 103.207 299.234 103.207C307.9 103.207 314.918 132.433 314.918 146.39Z" fill="#3636F0"/>
<path opacity="0.31" d="M314.918 146.39C314.918 160.359 307.895 161.417 299.234 161.417C290.574 161.417 283.551 160.359 283.551 146.39C283.551 132.421 290.569 103.207 299.234 103.207C307.9 103.207 314.918 132.433 314.918 146.39Z" fill="white"/>
<path d="M304.541 152.731L301.946 152.928L308.7 147.848L303.878 150.57L304.541 148.443L302.334 151.437L299.744 152.899L299.537 142.866L300.91 139.15L299.506 141.242L299.387 135.422L303.686 129.03L299.356 133.971L299.092 121.164L298.864 129.365L296.103 125.932L298.817 130.937L298.45 143.918L296.052 142.166L293.866 137.844L294.741 141.213L290.447 138.08L298.398 145.732L297.196 188.344H300.47L299.776 154.558L300.537 153.991L304.541 152.731Z" fill="#304569"/>
<path d="M348.492 151.886C348.492 159.041 344.897 159.579 340.464 159.579C336.03 159.579 332.436 159.041 332.436 151.886C332.436 144.731 336.03 129.792 340.464 129.792C344.897 129.792 348.492 144.737 348.492 151.886Z" fill="#3636F0"/>
<path opacity="0.5" d="M348.492 151.886C348.492 159.041 344.897 159.579 340.464 159.579C336.03 159.579 332.436 159.041 332.436 151.886C332.436 144.731 336.03 129.792 340.464 129.792C344.897 129.792 348.492 144.737 348.492 151.886Z" fill="white"/>
<path d="M343.179 155.134L341.853 155.233L345.307 152.632L342.837 154.025L343.179 152.938L342.05 154.47L340.724 155.221L340.62 150.083L341.319 148.182L340.604 149.251L340.542 146.275L342.744 143.004L340.527 145.535L340.392 138.981L340.273 143.171L338.864 141.42L340.252 143.98L340.061 150.627L338.833 149.725L337.714 147.511L338.165 149.239L335.969 147.633L340.035 151.551L339.418 173.357H341.096L340.744 156.071L341.128 155.776L343.179 155.134Z" fill="#304569"/>
<path d="M21.3182 145.841C21.3182 152.99 17.7236 153.534 13.29 153.534C8.85631 153.534 5.26172 152.99 5.26172 145.841C5.26172 138.692 8.85631 123.764 13.29 123.764C17.7236 123.764 21.3182 138.692 21.3182 145.841Z" fill="#3636F0"/>
<path opacity="0.5" d="M21.3182 145.841C21.3182 152.99 17.7236 153.534 13.29 153.534C8.85631 153.534 5.26172 152.99 5.26172 145.841C5.26172 138.692 8.85631 123.764 13.29 123.764C17.7236 123.764 21.3182 138.692 21.3182 145.841Z" fill="white"/>
<path d="M16.0048 149.083L14.6789 149.187L18.1336 146.587L15.663 147.98L16.0048 146.893L14.8757 148.425L13.5497 149.17L13.4461 144.038L14.1454 142.137L13.4306 143.206L13.3684 140.229L15.5646 136.958L13.3529 139.484L13.2182 132.936L13.0991 137.126L11.6903 135.369L13.0784 137.935L12.8919 144.575L11.6592 143.68L10.5404 141.466L10.991 143.194L8.79492 141.588L12.8608 145.506L12.2445 167.312H13.9226L13.5704 150.02L13.9537 149.731L16.0048 149.083Z" fill="#304569"/>
<path d="M61.0913 129.624C58.1522 129.613 55.2399 130.247 52.5206 131.492C49.8013 132.736 47.3284 134.566 45.2429 136.877C43.1574 139.188 41.5003 141.935 40.3662 144.96C39.232 147.986 38.643 151.231 38.6328 154.51C38.6232 160.638 40.6536 166.551 44.3303 171.103C46.9728 170.681 49.667 170.954 52.198 171.9C55.024 172.952 57.6237 174.646 59.8326 176.877H61.8889C64.1001 174.647 66.7014 172.952 69.5287 171.9C72.1959 170.904 75.0418 170.653 77.8159 171.172C81.5366 166.617 83.5964 160.674 83.5911 154.51C83.5802 151.227 82.9894 147.979 81.8524 144.95C80.7154 141.922 79.0546 139.174 76.9649 136.863C74.8752 134.551 72.3976 132.722 69.6738 131.48C66.9501 130.238 64.0336 129.607 61.0913 129.624Z" fill="#3636F0"/>
<path opacity="0.33" d="M61.0913 129.624C58.1522 129.613 55.2399 130.247 52.5206 131.492C49.8013 132.736 47.3284 134.566 45.2429 136.877C43.1574 139.188 41.5003 141.935 40.3662 144.96C39.232 147.986 38.643 151.231 38.6328 154.51C38.6232 160.638 40.6536 166.551 44.3303 171.103C46.9728 170.681 49.667 170.954 52.198 171.9C55.024 172.952 57.6237 174.646 59.8326 176.877H61.8889C64.1001 174.647 66.7014 172.952 69.5287 171.9C72.1959 170.904 75.0418 170.653 77.8159 171.172C81.5366 166.617 83.5964 160.674 83.5911 154.51C83.5802 151.227 82.9894 147.979 81.8524 144.95C80.7154 141.922 79.0546 139.174 76.9649 136.863C74.8752 134.551 72.3976 132.722 69.6738 131.48C66.9501 130.238 64.0336 129.607 61.0913 129.624Z" fill="white"/>
<path d="M71.5448 164.498C70.8542 164.883 70.1635 165.268 69.4729 165.654C68.7952 166.058 68.1397 166.508 67.5099 167L66.8158 167.578L70.4985 159.926L65.4485 168.751C64.934 169.21 64.4315 169.678 63.9412 170.156C63.128 170.947 62.3356 171.751 61.5586 172.583L61.2997 164.29L66.5828 155.314L61.2634 163.035L61.0303 155.609L60.6522 163.914L60.2741 172.242C59.5956 171.525 58.9119 170.832 58.2023 170.15C57.6498 169.614 57.0853 169.088 56.5086 168.572L51.7331 159.47L55.2396 167.503C55.0376 167.335 54.8408 167.173 54.6336 167.012C54.0038 166.52 53.3483 166.07 52.6706 165.665C51.9972 165.261 51.3084 164.873 50.5988 164.509C49.2165 163.756 47.7987 163.086 46.3516 162.504C47.7706 163.18 49.1541 163.946 50.4952 164.798C51.1582 165.214 51.8108 165.644 52.453 166.087C53.0839 166.526 53.691 167.007 54.271 167.526C55.4249 168.559 56.5264 169.662 57.5704 170.832C58.482 171.843 59.3729 172.895 60.2223 173.959L59.7406 184.523H61.9523L61.6363 174.386C62.5842 173.172 63.5942 171.982 64.6301 170.832C65.6741 169.662 66.7756 168.559 67.9295 167.526C68.5095 167.007 69.1166 166.526 69.7475 166.087C70.3794 165.613 71.0303 165.183 71.7001 164.798C73.0265 163.954 74.3943 163.194 75.7971 162.521C74.3485 163.093 72.9289 163.753 71.5448 164.498Z" fill="#304569"/>
<path d="M123.442 203.896V180.981H96.6895V166.301L119.635 105.618H139.208V166.648H147.687V180.981H139.208V203.913L123.442 203.896ZM109.975 166.648H123.442V124.921L109.975 166.648Z" fill="#304569"/>
<path d="M179.219 203.947C173.926 203.947 169.54 202.734 166.063 200.306C162.611 197.921 159.881 194.433 158.226 190.296C156.5 186.058 155.637 181.146 155.637 175.559V131.514C155.637 125.773 156.469 120.739 158.133 116.413C159.698 112.22 162.398 108.678 165.856 106.281C169.337 103.854 173.794 102.64 179.229 102.64C184.595 102.64 189 103.854 192.442 106.281C195.872 108.697 198.549 112.235 200.108 116.413C201.772 120.736 202.605 125.769 202.605 131.514V175.559C202.605 181.134 201.741 186.047 200.015 190.296C198.361 194.433 195.633 197.92 192.183 200.306C188.686 202.734 184.364 203.947 179.219 203.947ZM179.219 187.447C181.177 187.447 182.591 186.759 183.461 185.384C184.364 183.912 184.958 182.234 185.201 180.471C185.476 178.729 185.622 176.964 185.637 175.195V131.855C185.63 129.986 185.502 128.12 185.253 126.272C185.047 124.472 184.471 122.749 183.57 121.238C182.7 119.828 181.249 119.121 179.219 119.117C177.189 119.114 175.721 119.821 174.816 121.238C173.882 122.736 173.285 124.463 173.076 126.272C172.828 128.12 172.7 129.986 172.693 131.855V175.201C172.705 176.97 172.851 178.735 173.128 180.477C173.374 182.259 174.009 183.946 174.977 185.39C175.92 186.761 177.334 187.447 179.219 187.447Z" fill="#304569"/>
<path d="M238.478 203.896V180.981H211.73V166.301L234.671 105.618H254.244V166.648H262.723V180.981H254.244V203.913L238.478 203.896ZM225.011 166.648H238.478V124.921L225.011 166.648Z" fill="#304569"/>
<path d="M337.114 150.725C337.114 165.335 329.769 166.439 320.715 166.439C311.661 166.439 304.291 165.335 304.291 150.725C304.291 136.115 311.636 105.576 320.695 105.576C329.754 105.576 337.114 136.115 337.114 150.725Z" fill="#3636F0"/>
<path d="M326.258 157.354L323.544 157.562L330.614 152.251L325.564 155.094L326.258 152.875L323.953 156.007L321.244 157.533L321.032 147.037L322.467 143.16L320.996 145.338L320.871 139.258L325.367 132.572L320.84 137.738L320.566 124.348L320.322 132.918L317.442 129.329L320.276 134.566L319.892 148.141L317.385 146.309L315.096 141.79L316.013 145.309L311.527 142.038L319.841 150.037L318.582 194.596H322.006L321.28 159.267L322.073 158.671L326.258 157.354Z" fill="#304569"/>
<path d="M319.607 194.99C319.607 194.99 313.557 187.991 315.256 188.199C316.955 188.408 320.13 193.644 320.13 193.644C320.13 193.644 320.177 182.085 321.684 184.634C323.191 187.182 321.337 193.696 321.337 193.696C321.337 193.696 325.652 186.182 325.646 187.408C325.615 191.205 322.316 194.175 322.316 194.175C322.316 194.175 329.236 188.46 328.117 190.806C326.998 193.152 322.565 195.314 322.565 195.314C322.565 195.314 330.536 193.517 327.703 194.782C324.87 196.048 322.176 196.915 322.176 196.915H319.975C319.975 196.915 312.449 192.702 315.282 193.332C316.796 193.615 318.257 194.175 319.607 194.99Z" fill="#304569"/>
<path d="M29.6379 186.298C29.6379 186.298 24.4014 180.247 25.8672 180.432C27.333 180.617 30.0885 185.136 30.0885 185.136C30.0885 185.136 30.1248 175.161 31.4352 177.346C32.7456 179.53 31.1348 185.177 31.1348 185.177C31.1348 185.177 34.8692 178.681 34.8589 179.738C34.8589 183.027 31.9842 185.593 31.9842 185.593C31.9842 185.593 37.9614 180.651 36.9825 182.657C36.0036 184.662 32.1811 186.552 32.1811 186.552C32.1811 186.552 39.075 185.003 36.6251 186.096C34.1752 187.188 31.8496 187.916 31.8496 187.916H29.9383C29.9383 187.916 23.4329 184.275 25.8776 184.818C27.1948 185.08 28.4649 185.58 29.6379 186.298Z" fill="#304569"/>
<path d="M48.5589 142.761C48.5589 157.389 41.2091 158.493 32.1398 158.493C23.0704 158.493 15.7207 157.389 15.7207 142.761C15.7207 128.134 23.0756 97.5607 32.1398 97.5607C41.2039 97.5607 48.5589 128.134 48.5589 142.761Z" fill="#3636F0"/>
<path d="M37.6927 149.396L34.9786 149.604L42.0487 144.287L36.9986 147.136L37.6927 144.911L35.3826 148.05L32.6737 149.575L32.4614 139.074L33.8961 135.185L32.4251 137.369L32.3008 131.278L36.8018 124.585L32.2697 129.764L31.9952 116.355L31.7518 124.938L28.8668 121.343L31.7052 126.585L31.3219 140.172L28.8098 138.34L26.5205 133.815L27.4372 137.34L22.9414 134.063L31.2701 142.074L30.0063 186.679H33.4351L32.71 151.315L33.5024 150.72L37.6927 149.396Z" fill="#304569"/>
<path d="M86.9503 201.501C86.9503 201.501 81.7138 195.45 83.1848 195.635C84.6558 195.82 87.4061 200.339 87.4061 200.339C87.4061 200.339 87.4424 190.364 88.7476 192.549C90.0528 194.733 88.4472 200.38 88.4472 200.38C88.4472 200.38 92.1816 193.884 92.1764 194.941C92.1764 198.23 89.2966 200.796 89.2966 200.796C89.2966 200.796 95.279 195.855 94.3 197.86C93.3211 199.865 89.4934 201.784 89.4934 201.784C89.4934 201.784 96.3874 200.235 93.9375 201.328C91.4876 202.42 89.1568 203.171 89.1568 203.171H87.2662C87.2662 203.171 80.7556 199.53 83.2055 200.074C84.515 200.319 85.7798 200.801 86.9503 201.501Z" fill="#304569"/>
<path d="M114.721 214.765C114.721 214.765 109.484 208.714 110.955 208.899C112.426 209.084 115.176 213.604 115.176 213.604C115.176 213.604 115.213 203.628 116.518 205.813C117.823 207.998 116.218 213.644 116.218 213.644C116.218 213.644 119.952 207.148 119.947 208.211C119.921 211.494 117.067 214.06 117.067 214.06C117.067 214.06 123.049 209.119 122.07 211.124C121.091 213.13 117.31 215.019 117.31 215.019C117.31 215.019 124.204 213.471 121.754 214.563C119.305 215.655 116.974 216.407 116.974 216.407H115.073C115.073 216.407 108.562 212.766 111.012 213.309C112.311 213.568 113.563 214.06 114.721 214.765Z" fill="#304569"/>
<path d="M189.273 205.859C189.273 205.859 185.497 201.495 186.559 201.628C187.621 201.761 189.599 205.021 189.599 205.021C189.599 205.021 189.63 197.825 190.573 199.403C191.516 200.981 190.355 205.055 190.355 205.055C190.355 205.055 193.049 200.362 193.043 201.131C193.043 203.501 190.972 205.35 190.972 205.35C190.972 205.35 195.286 201.784 194.597 203.235C193.908 204.685 191.132 206.044 191.132 206.044C191.132 206.044 196.105 204.922 194.333 205.714C192.562 206.506 190.889 207.043 190.889 207.043H189.516C189.516 207.043 184.818 204.414 186.585 204.807C187.525 204.994 188.433 205.349 189.273 205.859Z" fill="#304569"/>
<path d="M335.885 195.427C335.885 195.427 332.948 192.029 333.772 192.133C334.595 192.237 336.139 194.774 336.139 194.774C336.139 194.774 336.139 189.174 336.895 190.399C337.651 191.624 336.724 194.797 336.724 194.797C336.724 194.797 338.796 191.15 338.796 191.745C338.796 193.589 337.18 195.028 337.18 195.028C337.18 195.028 340.536 192.254 339.987 193.381C339.438 194.508 337.294 195.566 337.294 195.566C337.294 195.566 341.163 194.699 339.785 195.311C338.408 195.924 337.102 196.346 337.102 196.346H336.04C336.04 196.346 332.384 194.3 333.761 194.612C334.505 194.75 335.223 195.026 335.885 195.427Z" fill="#304569"/>
<path d="M137.976 205.882C137.976 205.882 132.74 199.831 134.211 200.016C135.682 200.2 138.432 204.72 138.432 204.72C138.432 204.72 138.468 194.745 139.774 196.929C141.079 199.114 139.478 204.766 139.478 204.766C139.478 204.766 143.213 198.264 143.202 199.328C143.177 202.61 140.328 205.177 140.328 205.177C140.328 205.177 146.305 200.235 145.326 202.241C144.347 204.246 140.525 206.136 140.525 206.136C140.525 206.136 147.413 204.587 144.963 205.679C142.514 206.772 140.188 207.523 140.188 207.523H138.282C138.282 207.523 131.771 203.882 134.221 204.425C135.536 204.679 136.804 205.171 137.976 205.882Z" fill="#3636F0"/>
<path d="M100.217 201.866C100.217 201.866 96.7048 197.82 97.6941 197.924C98.6834 198.028 100.522 201.086 100.522 201.086C100.522 201.086 100.522 194.393 101.423 195.884C102.325 197.375 101.221 201.138 101.221 201.138C101.221 201.138 103.728 196.774 103.723 197.491C103.723 199.693 101.791 201.415 101.791 201.415C101.791 201.415 105.8 198.098 105.142 199.444C104.484 200.791 101.926 202.057 101.926 202.057C101.926 202.057 106.546 201.016 104.904 201.75C103.262 202.484 101.698 202.987 101.698 202.987H100.424C100.424 202.987 96.0574 200.542 97.6993 200.912C98.5798 201.073 99.4304 201.395 100.217 201.866Z" fill="#3636F0"/>
<path d="M56.3258 217.898C56.3258 217.898 52.8141 213.852 53.8034 213.962C54.7927 214.072 56.6314 217.117 56.6314 217.117C56.6314 217.117 56.6573 210.425 57.5327 211.916C58.408 213.407 57.3307 217.169 57.3307 217.169C57.3307 217.169 59.8168 212.765 59.8168 213.499C59.8168 215.701 57.8849 217.424 57.8849 217.424C57.8849 217.424 61.8938 214.106 61.2412 215.453C60.5886 216.799 58.0195 218.065 58.0195 218.065C58.0195 218.065 62.6397 217.025 60.9978 217.759C59.3559 218.493 57.7916 218.996 57.7916 218.996H56.5175C56.5175 218.996 52.1511 216.551 53.793 216.921C54.6801 217.087 55.5361 217.417 56.3258 217.898Z" fill="#3636F0"/>
<path d="M173.766 218.683C173.766 218.683 170.254 214.638 171.238 214.747C172.222 214.857 174.071 217.903 174.071 217.903C174.071 217.903 174.097 211.21 174.973 212.701C175.848 214.193 174.771 217.955 174.771 217.955C174.771 217.955 177.277 213.597 177.267 214.308C177.267 216.51 175.34 218.232 175.34 218.232C175.34 218.232 179.349 214.915 178.691 216.262C178.034 217.608 175.47 218.874 175.47 218.874C175.47 218.874 180.095 217.834 178.453 218.568C176.811 219.302 175.247 219.804 175.247 219.804H173.968C173.968 219.804 169.607 217.36 171.248 217.73C172.129 217.89 172.98 218.212 173.766 218.683Z" fill="#3636F0"/>
<path d="M230.74 218.891C230.74 218.891 227.233 214.846 228.218 214.956C229.202 215.065 231.046 218.117 231.046 218.117C231.046 218.117 231.071 211.424 231.947 212.916C232.822 214.407 231.745 218.163 231.745 218.163C231.745 218.163 234.252 213.806 234.247 214.516C234.247 216.724 232.315 218.446 232.315 218.446C232.315 218.446 236.323 215.129 235.671 216.476C235.018 217.822 232.449 219.088 232.449 219.088C232.449 219.088 237.069 218.048 235.427 218.782C233.786 219.516 232.221 220.018 232.221 220.018H230.947C230.947 220.018 226.581 217.574 228.223 217.938C229.102 218.102 229.953 218.424 230.74 218.891Z" fill="#3636F0"/>
<path d="M336.646 206.195C336.646 206.195 331.301 200.017 332.803 200.202C334.305 200.387 337.107 205.01 337.107 205.01C337.107 205.01 337.148 194.821 338.479 197.058C339.811 199.295 338.174 205.057 338.174 205.057C338.174 205.057 341.991 198.416 341.981 199.503C341.981 202.855 339.044 205.479 339.044 205.479C339.044 205.479 345.146 200.433 344.146 202.479C343.146 204.525 339.246 206.455 339.246 206.455C339.246 206.455 346.28 204.872 343.778 205.987C341.276 207.103 338.899 207.871 338.899 207.871H336.957C336.957 207.871 330.311 204.149 332.813 204.71C334.154 204.97 335.449 205.472 336.646 206.195Z" fill="#3636F0"/>
<path d="M18.142 206.195C18.142 206.195 12.7967 200.017 14.2936 200.202C15.7905 200.387 18.603 205.01 18.603 205.01C18.603 205.01 18.6444 194.821 19.9756 197.058C21.3067 199.295 19.67 205.057 19.67 205.057C19.67 205.057 23.4821 198.416 23.4769 199.503C23.4769 202.855 20.5401 205.479 20.5401 205.479C20.5401 205.479 26.6675 200.433 25.6316 202.479C24.5957 204.525 20.7266 206.455 20.7266 206.455C20.7266 206.455 27.7656 204.872 25.2638 205.987C22.7621 207.103 20.3847 207.871 20.3847 207.871H18.4528C18.4528 207.871 11.8074 204.149 14.3092 204.71C15.6504 204.97 16.9449 205.472 18.142 206.195Z" fill="#3636F0"/>
<path d="M44.5112 197.473C44.5112 197.473 39.0416 186.943 40.6006 186.134C42.1597 185.325 45.3865 193.33 45.3865 193.33C45.3865 193.33 44.7598 178.24 46.2152 179.632C47.6707 181.025 49.0225 191.706 49.0225 191.706C49.0225 191.706 51.9386 180.095 52.8761 182.534C53.8136 184.973 52.125 192.359 52.125 192.359C52.125 192.359 56.3049 183.476 56.7245 186.377C57.144 189.278 54.7459 194.035 54.7459 194.035C54.7459 194.035 60.2569 187.885 60.6764 190.324C61.096 192.763 59.221 195.196 59.221 195.196C59.221 195.196 66.4982 190.787 64.732 193.226C62.9658 195.664 60.3657 198.797 60.3657 198.797C60.3657 198.797 67.3321 196.011 66.4982 197.641C65.6643 199.271 62.5462 201.005 62.5462 201.005C62.5462 201.005 68.2437 199.849 67.6429 200.889C67.0604 201.704 66.3602 202.405 65.5711 202.964H39.6735C39.6735 202.964 32.8106 200.195 35.5299 199.964C37.3043 199.876 39.074 200.231 40.7094 201.005C40.7094 201.005 32.2823 194.647 36.2343 194.162C40.1863 193.676 43.4131 199.265 43.4131 199.265C43.4131 199.265 37.7985 190.446 39.7874 191.838L44.5112 197.473Z" fill="#3636F0"/>
<path d="M44.8646 200.468C44.8646 200.468 37.7997 192.301 39.7835 192.55C41.7672 192.798 45.4809 198.907 45.4809 198.907C45.4809 198.907 45.5327 185.447 47.2938 188.394C49.0548 191.342 46.8691 198.953 46.8691 198.953C46.8691 198.953 51.9087 190.186 51.8984 191.619C51.8621 196.052 48.0137 199.514 48.0137 199.514C48.0137 199.514 56.0834 192.85 54.7471 195.549C53.4108 198.248 48.2675 200.809 48.2675 200.809C48.2675 200.809 57.5907 198.716 54.2654 200.19C50.9402 201.664 47.8169 202.681 47.8169 202.681H45.2271C45.2271 202.681 36.422 197.763 39.7524 198.503C41.5423 198.837 43.2699 199.501 44.8646 200.468Z" fill="#304569"/>
<path d="M47.9032 202.97H45.2099L45.1529 202.935C38.5542 199.242 38.7354 198.659 38.808 198.416C38.9219 198.046 39.3829 198.115 39.8439 198.219C41.1562 198.502 42.4401 198.93 43.6767 199.497C41.6878 197.121 38.8183 193.457 39.2223 192.561C39.2776 192.448 39.3652 192.359 39.4713 192.307C39.5773 192.256 39.6957 192.246 39.8076 192.278C41.4754 192.486 44.148 196.353 45.2202 198.017C45.2616 194.85 45.4844 188.111 46.6653 187.718C46.9553 187.62 47.235 187.799 47.5044 188.244C48.7889 190.394 48.1052 194.775 47.5717 197.254C51.2595 190.978 51.7153 191.14 51.9277 191.203C52.0074 191.232 52.0754 191.291 52.1199 191.371C52.1644 191.45 52.1825 191.544 52.1711 191.637C52.0623 193.789 51.336 195.846 50.0993 197.503C52.3835 195.734 54.5537 194.289 55.025 194.752C55.3151 195.035 55.0768 195.52 54.9836 195.705C54.1238 197.468 51.7568 199.132 50.1045 200.132C55.0717 199.086 55.1649 199.421 55.2322 199.67C55.3254 200.022 54.9473 200.219 54.3672 200.479C51.0938 201.941 47.9291 202.964 47.898 202.976L47.9032 202.97ZM45.3601 202.392H47.8307C48.1777 202.276 51.0265 201.334 54.0461 200.011C52.8134 200.167 50.5137 200.589 48.3901 201.092L46.2302 201.577L46.5462 201.947L44.7696 200.71C43.2144 199.773 41.5335 199.123 39.7921 198.786L39.5901 198.745C41.4245 200.099 43.3364 201.317 45.3134 202.392H45.3601ZM39.7092 192.833C39.7092 193.573 42.444 197.225 45.0752 200.265L46.1836 201.548L48.214 200.543C48.2658 200.543 53.3054 198 54.5692 195.411C54.6058 195.342 54.637 195.271 54.6625 195.197C53.9063 195.335 50.8141 197.589 48.2088 199.745L47.8928 199.288C47.9291 199.26 51.4512 196.035 51.6687 191.949C50.9073 192.804 48.8821 196.052 47.1263 199.109L46.0904 200.947L46.6808 198.867C46.6808 198.791 48.7889 191.353 47.1159 188.55C46.9502 188.267 46.8621 188.256 46.8621 188.256C46.2975 188.371 45.8003 193.243 45.7796 198.901V199.832L45.3083 199.063C44.2724 197.393 41.3304 193.024 39.8024 192.833H39.7092Z" fill="#304569"/>
<path d="M277.46 215.991C277.46 215.991 267.101 196.098 270.069 194.561C273.036 193.024 279.117 208.143 279.117 208.143C279.117 208.143 277.936 179.627 280.671 182.257C283.406 184.886 285.98 205.074 285.98 205.074C285.98 205.074 291.486 183.112 293.257 187.736C295.029 192.359 291.859 206.305 291.859 206.305C291.859 206.305 299.763 189.516 300.55 195C301.337 200.485 296.816 209.478 296.816 209.478C296.816 209.478 307.237 197.849 308.024 202.456C308.811 207.062 305.269 211.674 305.269 211.674C305.269 211.674 319.031 203.334 315.69 207.94C312.349 212.546 307.434 218.476 307.434 218.476C307.434 218.476 320.605 213.205 319.031 216.28C317.456 219.355 311.562 222.637 311.562 222.637C311.562 222.637 322.377 220.441 321.196 222.418C320.015 224.394 317.27 226.33 317.27 226.33H268.302C268.302 226.33 255.322 221.1 260.435 220.661C265.547 220.221 270.276 222.637 270.276 222.637C270.276 222.637 254.354 210.57 261.823 209.691C269.292 208.813 275.388 219.343 275.388 219.343C275.388 219.343 264.77 202.669 268.509 205.305L277.46 215.991Z" fill="#3636F0"/>
<path d="M278.128 221.654C278.128 221.654 264.775 206.218 268.551 206.68C272.327 207.142 279.309 218.69 279.309 218.69C279.309 218.69 279.407 193.26 282.738 198.82C286.068 204.38 281.976 218.794 281.976 218.794C281.976 218.794 291.496 202.218 291.475 204.923C291.408 213.297 284.141 219.846 284.141 219.846C284.141 219.846 299.385 207.246 296.888 212.332C294.391 217.418 284.607 222.302 284.607 222.302C284.607 222.302 302.181 218.343 295.935 221.146C289.688 223.949 283.748 225.85 283.748 225.85H278.91C278.91 225.85 262.335 216.557 268.551 217.95C274.766 219.343 278.128 221.654 278.128 221.654Z" fill="#304569"/>
<path d="M283.795 226.121H278.843L278.786 226.092C273.177 222.948 266.563 218.972 266.91 217.851C267.029 217.464 267.505 217.406 268.603 217.649C271.443 218.254 274.208 219.236 276.839 220.573C273.778 216.961 266.894 208.534 267.666 206.789C267.759 206.569 267.992 206.327 268.541 206.396C271.84 206.801 277.346 215.169 279.019 217.776C279.066 213.025 279.382 198.507 281.609 197.767C282.049 197.617 282.495 197.918 282.94 198.658C285.602 203.125 283.686 212.863 282.697 216.99C285.887 211.499 290.435 204.027 291.424 204.356C291.538 204.396 291.725 204.518 291.719 204.934C291.678 210.135 288.866 214.69 286.711 217.412C290.559 214.36 296.288 210.106 297.23 211.02C297.593 211.372 297.329 212.037 297.101 212.505C295.236 216.314 289.56 219.897 286.581 221.579C297.293 219.267 297.458 219.931 297.546 220.197C297.645 220.567 297.293 220.85 296.055 221.405C289.839 224.168 283.898 226.098 283.841 226.115L283.795 226.121ZM278.962 225.543H283.722C284.24 225.381 289.938 223.503 295.853 220.862C296.158 220.731 296.457 220.582 296.749 220.417C295.242 220.417 289.679 221.457 284.665 222.584L282.355 223.104L284.51 222.035C284.608 221.989 294.206 217.186 296.635 212.21C296.94 211.592 296.873 211.43 296.873 211.43C296.195 210.904 289.803 215.476 284.266 220.099L283.95 219.642C284.023 219.579 291.098 213.106 291.202 204.992C290.166 205.697 285.856 212.569 282.179 218.966L281.143 220.804L281.733 218.724C281.775 218.579 285.753 204.391 282.526 198.998C282.36 198.715 282.034 198.253 281.78 198.34C280.226 198.86 279.605 211.106 279.574 218.706V219.642L279.107 218.868C279.035 218.752 272.12 207.431 268.531 206.986C268.438 206.986 268.22 206.957 268.179 207.061C267.661 208.269 273.804 216.215 278.351 221.469L279.807 223.151L278.025 221.914C277.994 221.914 274.653 219.602 268.536 218.232C268.198 218.137 267.849 218.094 267.5 218.105C268.034 219.053 273.638 222.555 278.962 225.543Z" fill="#304569"/>
<path d="M62.3306 198.069C62.3306 198.069 63.3665 197 64.2937 197C65.2208 197 67.9711 198.485 67.9711 198.485C67.9711 198.485 69.0795 200.393 69.178 200.508C69.2764 200.624 70.6386 201.271 70.7318 201.537C70.825 201.803 71.0322 202.693 71.0322 202.693H62.5792L61.0254 198.116L62.3306 198.069Z" fill="white"/>
<path d="M71.3772 202.97H62.4062L60.6504 197.826L62.2301 197.78C62.4995 197.532 63.437 196.711 64.302 196.711C65.2394 196.711 67.8033 198.075 68.0934 198.225L68.1555 198.26L68.1969 198.329C68.7149 199.213 69.3002 200.207 69.3779 200.312L69.7508 200.52C70.5899 200.982 70.9007 201.19 70.9887 201.421C71.0768 201.652 71.2839 202.513 71.3047 202.606L71.3772 202.97ZM62.7585 202.392H70.6935C70.638 202.14 70.5705 201.891 70.4915 201.647C70.1746 201.417 69.8441 201.213 69.5022 201.034C69.3174 200.952 69.1433 200.843 68.9842 200.71C68.8806 200.595 68.2021 199.439 67.7826 198.711C66.9746 198.283 64.9597 197.289 64.2812 197.289C63.4836 197.289 62.4995 198.271 62.4891 198.283L62.4166 198.352L61.3807 198.387L62.7585 202.392Z" fill="#304569"/>
<path d="M64.292 197L64.2402 197.902C64.2402 197.902 66.4052 199.306 66.3586 199.815C66.2334 200.392 66.06 200.955 65.8407 201.496L66.9491 202.791H61.0703L61.5209 198.913C61.5209 198.913 62.7796 196.89 64.292 197Z" fill="#304569"/>
<path d="M51.298 197.508C51.298 197.508 55.5297 190.422 56.4775 190.313C57.2128 190.335 57.9331 190.55 58.58 190.941C59.227 191.331 59.7825 191.886 60.2016 192.561C60.8292 194.004 61.3355 195.509 61.714 197.057C61.7658 197.225 61.9678 197.34 63.1228 199.415C64.2779 201.49 64.2313 202.681 64.2313 202.681H47.8691C48.0632 201.66 48.3858 200.676 48.8274 199.756C49.3375 199.036 50.0453 198.522 50.8422 198.294L51.298 197.508Z" fill="white"/>
<path d="M64.48 202.97H47.543L47.6051 202.618C47.8067 201.564 48.1415 200.549 48.5996 199.601C49.117 198.841 49.8456 198.294 50.6714 198.046L51.0754 197.347C52.1113 195.659 55.4521 190.146 56.4517 190.024C57.2381 190.042 58.0093 190.269 58.7018 190.685C59.3944 191.101 59.9883 191.694 60.4348 192.417C61.0687 193.823 61.5687 195.299 61.9265 196.821L61.9628 196.965L62.0612 197.11C62.2269 197.358 62.5791 197.878 63.3509 199.265C64.537 201.398 64.5007 202.641 64.4955 202.693L64.48 202.97ZM48.1904 202.392H63.962C63.7917 201.383 63.4392 200.424 62.9261 199.572C62.5368 198.845 62.115 198.141 61.6623 197.462C61.589 197.371 61.5311 197.265 61.4914 197.15C61.4723 197.096 61.4567 197.04 61.4448 196.983C61.1077 195.501 60.623 194.067 59.9997 192.706C59.6067 192.078 59.0879 191.561 58.4847 191.196C57.8814 190.831 57.2102 190.628 56.5243 190.602C56.0063 190.689 53.5564 194.261 51.526 197.665L51.0081 198.549L50.9045 198.578C50.1724 198.785 49.5201 199.252 49.045 199.907C48.6624 200.688 48.3783 201.524 48.2008 202.392H48.1904Z" fill="#304569"/>
<path d="M57.7931 202.566C57.7931 202.566 57.3425 201.329 57.2752 201.162C57.2078 200.994 57.2234 199.364 57.0731 198.688C56.6801 197.723 56.2085 196.8 55.6643 195.931L56.5707 193.013L56.1149 192.62L56.8711 190.539L56.4516 190.32C55.4571 190.516 51.2721 197.509 51.2721 197.509L50.8163 198.295C50.0194 198.523 49.3116 199.037 48.8015 199.757C48.3713 200.639 48.0573 201.585 47.8691 202.566H57.7931Z" fill="#304569"/>
<path d="M225.48 199.832C225.822 199.478 226.251 199.245 226.713 199.162C227.282 199.162 229.017 200.093 229.017 200.093C229.017 200.093 229.711 201.289 229.774 201.358C229.836 201.428 230.69 201.838 230.753 202.006C230.815 202.173 230.944 202.722 230.944 202.722H225.635L224.656 199.832H225.48Z" fill="white"/>
<path d="M231.261 203.011H225.46L224.289 199.578L225.382 199.543C225.753 199.172 226.218 198.938 226.713 198.873C227.324 198.873 228.945 199.734 229.132 199.832L229.194 199.867L229.235 199.936C229.551 200.485 229.914 201.092 229.971 201.167C230.028 201.242 230.064 201.208 230.173 201.271C230.727 201.583 230.924 201.716 230.991 201.89C231.072 202.137 231.139 202.39 231.193 202.647L231.261 203.011ZM225.801 202.433H230.593C230.556 202.294 230.52 202.173 230.499 202.115C230.479 202.057 230.085 201.878 229.924 201.786C229.799 201.732 229.682 201.656 229.577 201.56C229.302 201.166 229.051 200.751 228.826 200.318C228.152 199.93 227.437 199.639 226.698 199.451C226.301 199.524 225.932 199.725 225.636 200.029L225.568 200.098H225.014L225.801 202.433Z" fill="#304569"/>
<path d="M226.713 199.162L226.682 199.74C226.682 199.74 228.039 200.624 228.008 200.942C227.933 201.305 227.827 201.659 227.692 202L228.386 202.809H224.688L224.972 200.376C224.972 200.376 225.765 199.093 226.713 199.162Z" fill="#304569"/>
<path d="M218.56 199.473C218.56 199.473 221.217 195.029 221.818 194.96C222.279 194.976 222.73 195.112 223.136 195.356C223.541 195.601 223.89 195.948 224.154 196.37C224.547 197.276 224.864 198.22 225.102 199.19C225.133 199.294 225.257 199.369 225.988 200.67C226.383 201.268 226.623 201.976 226.682 202.716H216.416C216.536 202.076 216.739 201.459 217.017 200.884C217.337 200.431 217.781 200.109 218.281 199.965L218.56 199.473Z" fill="white"/>
<path d="M226.924 203.011H216.094L216.161 202.658C216.288 201.986 216.501 201.338 216.793 200.734C217.123 200.246 217.587 199.891 218.114 199.722L218.347 199.318C219.383 197.618 221.159 194.752 221.786 194.694C222.298 194.701 222.8 194.845 223.251 195.115C223.702 195.384 224.088 195.771 224.376 196.243C224.781 197.132 225.099 198.068 225.324 199.034V199.115C225.324 199.115 225.324 199.115 225.37 199.179C225.474 199.335 225.697 199.659 226.183 200.537C226.608 201.183 226.862 201.947 226.919 202.745L226.924 203.011ZM216.746 202.433H226.391C226.268 201.86 226.056 201.316 225.764 200.826C225.287 199.976 225.075 199.67 224.977 199.514C224.925 199.447 224.883 199.371 224.852 199.289L224.826 199.185C224.614 198.262 224.312 197.369 223.925 196.52C223.69 196.147 223.38 195.838 223.021 195.619C222.662 195.399 222.262 195.275 221.853 195.255C221.506 195.382 219.989 197.63 218.787 199.635L218.45 200.213L218.352 200.242C217.916 200.363 217.527 200.639 217.244 201.028C217.024 201.469 216.86 201.942 216.757 202.433H216.746Z" fill="#304569"/>
<path d="M222.637 202.652C222.637 202.652 222.352 201.872 222.321 201.768C222.29 201.664 222.29 200.612 222.196 200.219C221.948 199.613 221.651 199.033 221.311 198.485L221.881 196.653L221.596 196.405L222.067 195.105L221.803 194.966C221.181 195.087 218.56 199.474 218.56 199.474L218.281 199.965C217.781 200.109 217.337 200.432 217.017 200.884C216.746 201.436 216.549 202.03 216.432 202.647L222.637 202.652Z" fill="#304569"/>
<path d="M311.14 217.118C311.14 217.118 313.139 215.101 314.854 215.101C316.568 215.101 321.805 217.91 321.805 217.91C321.805 217.91 323.902 221.51 324.089 221.73C324.275 221.95 326.849 223.169 327.041 223.672C327.233 224.175 327.611 225.833 327.611 225.833H311.616L308.664 217.193L311.14 217.118Z" fill="white"/>
<path d="M327.947 226.122H311.44L308.291 216.91L311.026 216.812C311.414 216.436 313.217 214.789 314.838 214.789C316.594 214.789 321.685 217.511 321.903 217.627L321.965 217.661L322.006 217.731C322.799 219.095 324.114 221.32 324.259 221.505C324.322 221.557 324.705 221.771 325.042 221.961C326.466 222.753 327.113 223.169 327.264 223.539C327.46 224.053 327.833 225.672 327.849 225.741L327.947 226.122ZM311.798 225.545H327.279C327.155 225.03 326.932 224.123 326.803 223.811C326.673 223.499 325.425 222.857 324.824 222.522C324.5 222.367 324.193 222.174 323.907 221.944C323.716 221.73 322.167 219.054 321.628 218.147C321.022 217.829 316.392 215.402 314.853 215.402C313.315 215.402 311.331 217.326 311.316 217.344L311.243 217.419L309.037 217.482L311.798 225.545Z" fill="#304569"/>
<path d="M314.854 215.079L314.761 216.778C314.761 216.778 318.853 219.436 318.759 220.39C318.531 221.484 318.212 222.552 317.806 223.58L319.878 226.025H308.742L309.597 218.691C309.597 218.691 312 214.894 314.854 215.079Z" fill="#304569"/>
<path d="M290.308 216.06C290.308 216.06 298.31 202.675 300.118 202.461C301.925 202.248 305.732 203.947 307.162 206.709C308.591 209.472 309.922 214.893 310.021 215.211C310.119 215.529 310.497 215.742 312.683 219.672C314.869 223.602 314.781 225.833 314.781 225.833H283.812C283.812 225.833 284.481 222.325 285.625 220.308C286.77 218.291 289.432 217.546 289.432 217.546L290.308 216.06Z" fill="white"/>
<path d="M315.003 226.122H283.496L283.563 225.775C283.563 225.625 284.252 222.192 285.402 220.151C286.474 218.262 288.753 217.458 289.266 217.296L290.074 215.898C290.898 214.517 298.19 202.391 300.071 202.172C301.951 201.952 305.882 203.692 307.363 206.564C308.218 208.211 309.161 210.991 310.171 214.834C310.207 214.985 310.233 215.083 310.243 215.118C310.302 215.242 310.373 215.358 310.456 215.464C310.771 215.933 311.424 216.898 312.885 219.51C315.091 223.475 315.019 225.746 315.019 225.838L315.003 226.122ZM284.138 225.544H314.49C314.433 224.844 314.123 222.839 312.419 219.822C311.678 218.443 310.876 217.106 310.015 215.817C309.895 215.661 309.797 215.486 309.725 215.297L309.648 214.996C308.648 211.199 307.721 208.46 306.892 206.853C305.53 204.218 301.826 202.536 300.096 202.744C298.869 202.888 293.544 211.084 290.478 216.216L289.567 217.799L289.468 217.828C289.468 217.828 286.878 218.568 285.842 220.464C285.066 222.06 284.492 223.77 284.138 225.544Z" fill="#304569"/>
<path d="M302.571 225.62C302.571 225.62 301.711 223.308 301.618 222.967C301.525 222.626 301.525 219.563 301.235 218.292C300.945 217.02 298.572 213.09 298.572 213.09L300.287 207.565L299.427 206.819L300.857 202.89L300.059 202.479C298.184 202.855 290.285 216.067 290.285 216.067L289.431 217.552C289.431 217.552 286.763 218.297 285.624 220.314C284.645 222.048 284.018 224.845 283.857 225.626L302.571 225.62Z" fill="#304569"/>
</svg>
