<svg width="131" height="22" viewBox="0 0 131 22" fill="none" xmlns="http://www.w3.org/2000/svg">
<path d="M0 5.47083H2.93601L2.01311 2.92342H4.71164L3.96685 0.510925C7.30763 0.732205 10.2814 1.92496 13.1419 3.46312C10.6592 2.79928 8.21974 1.99512 5.55359 1.6605C5.78026 2.37291 5.99614 2.97199 6.15806 3.58726C7.15831 7.46235 8.14418 11.3428 9.11565 15.2287C9.26137 15.7684 9.19121 16.524 9.53122 16.8802C9.87124 17.2364 10.5729 17.1123 11.118 17.1879C13.3038 17.4955 15.4356 17.9543 17.3786 19.093C17.7572 19.3248 18.118 19.5846 18.458 19.8702C14.1504 19.5586 9.82398 20.109 5.73169 21.4893C4.49576 15.9573 2.84426 10.5549 0 5.47083ZM3.56207 3.72758C3.75636 4.19712 3.91287 4.56952 4.06399 4.94732C5.66072 9.17795 6.95919 13.5152 7.94988 17.9273C8.08481 18.467 8.30609 18.5803 8.82421 18.5641C10.222 18.5209 11.6199 18.5155 13.0177 18.5641C13.8435 18.5641 14.6692 18.7314 15.495 18.8232C15.3446 18.6792 15.1582 18.5785 14.9553 18.5317C13.1539 18.0885 11.2981 17.9068 9.44487 17.992C8.90516 17.992 8.71627 17.8355 8.58674 17.3336C7.41018 12.8864 6.22282 8.45541 5.05166 4.02981C4.99229 3.80853 4.90594 3.59805 4.83038 3.36598L3.56207 3.72758ZM7.25906 19.7623L3.20046 5.8918L1.82961 6.32897C3.83873 10.8648 5.418 15.5791 6.54665 20.4099L9.82267 19.5464L9.79028 19.3899L7.25906 19.7623Z" fill="#00ABFF"/>
<path d="M32.404 1.52005L24.7078 3.46839C27.6816 1.93562 30.6446 0.742868 34.0069 0.5L33.2567 2.91789H35.9553L35.0108 5.44911H37.9468C35.1619 10.5547 33.4618 15.9302 32.2367 21.5C28.121 20.1013 23.7611 19.5667 19.4294 19.9295C20.4043 19.0493 21.5786 18.4195 22.8512 18.0944C24.4703 17.6735 26.1704 17.3928 27.8381 17.1068C28.3292 17.0204 28.5397 16.8963 28.6476 16.3512C29.5169 11.4951 30.7417 6.70939 32.3122 2.03277C32.3392 1.95181 32.3446 1.86546 32.404 1.52005ZM33.1596 3.35505C33.0786 3.56554 32.9977 3.73824 32.9437 3.89476C32.6091 5.0983 32.2583 6.29645 31.9452 7.5054C31.0997 10.776 30.2614 14.0484 29.4302 17.3227C29.3115 17.7814 29.0956 17.9379 28.5883 17.9541C27.1041 18.0027 25.6199 18.1106 24.1411 18.2618C23.5199 18.364 22.9067 18.5101 22.3061 18.6989L29.9052 18.3535C31.1141 13.4961 32.3824 8.52005 34.4009 3.70046L33.1596 3.35505ZM31.4433 20.4152C32.5593 15.5787 34.1352 10.8599 36.1496 6.32344L34.7841 5.89707C33.4133 10.5655 32.0856 15.1692 30.7255 19.746L28.2698 19.3951V19.5571L31.4433 20.4152Z" fill="#00ABFF"/>
<path d="M3.56201 3.72744L4.83032 3.35504C4.90588 3.58712 4.99224 3.7976 5.0516 4.01888C6.22277 8.44448 7.39933 12.8755 8.5489 17.3119C8.67843 17.8138 8.84574 17.9919 9.40704 17.9703C11.2602 17.885 13.116 18.0668 14.9174 18.51C15.1203 18.5567 15.3068 18.6574 15.4572 18.8015C14.6314 18.7097 13.8056 18.564 12.9799 18.5424C11.5821 18.4938 10.1842 18.4992 8.78637 18.5424C8.24667 18.5424 8.04698 18.456 7.91205 17.9055C6.93151 13.5109 5.64568 9.18993 4.06394 4.97416C3.91282 4.56938 3.75631 4.19698 3.56201 3.72744Z" fill="#171B36"/>
<path d="M7.25898 19.7621L9.79021 19.3789L9.82259 19.5355L6.54657 20.4098C5.41792 15.579 3.83865 10.8647 1.82953 6.32882L3.20038 5.89166L7.25898 19.7621Z" fill="#171B36"/>
<path d="M33.1595 3.35504L34.4009 3.72204C32.3824 8.54163 31.114 13.5177 29.9051 18.3751L22.306 18.7205C22.9066 18.5316 23.5198 18.3856 24.141 18.2833C25.6198 18.1322 27.104 18.0243 28.5882 17.9757C29.0955 17.9757 29.3114 17.803 29.4302 17.3442C30.2613 14.07 31.0997 10.7976 31.9452 7.52698C32.2582 6.31803 32.609 5.11988 32.9437 3.91634C32.9976 3.74903 33.0786 3.57632 33.1595 3.35504Z" fill="#171B36"/>
<path d="M31.4433 20.4152L28.2482 19.5463V19.3844L30.7039 19.7352C32.0424 15.1585 33.4024 10.5602 34.7625 5.88629L36.128 6.31266C34.1203 10.8534 32.5516 15.5757 31.4433 20.4152Z" fill="#171B36"/>
<path d="M52 17.3V4.5H56.2687C57.1193 4.5 57.8208 4.65417 58.3733 4.9625C58.9258 5.26667 59.3371 5.67708 59.6074 6.19375C59.8777 6.70625 60.0128 7.275 60.0128 7.9C60.0128 8.45 59.9194 8.90417 59.7326 9.2625C59.5498 9.62083 59.3073 9.90417 59.0053 10.1125C58.7072 10.3208 58.3832 10.475 58.0335 10.575V10.7C58.4071 10.725 58.7827 10.8625 59.1603 11.1125C59.5379 11.3625 59.8538 11.7208 60.1082 12.1875C60.3626 12.6542 60.4898 13.225 60.4898 13.9C60.4898 14.5417 60.3507 15.1187 60.0724 15.6312C59.7942 16.1438 59.355 16.55 58.7549 16.85C58.1547 17.15 57.3737 17.3 56.4118 17.3H52ZM53.4786 15.925H56.4118C57.3777 15.925 58.0633 15.7292 58.4687 15.3375C58.8781 14.9417 59.0828 14.4625 59.0828 13.9C59.0828 13.4667 58.9774 13.0667 58.7668 12.7C58.5561 12.3292 58.256 12.0333 57.8665 11.8125C57.477 11.5875 57.016 11.475 56.4834 11.475H53.4786V15.925ZM53.4786 10.125H56.221C56.6662 10.125 57.0676 10.0333 57.4254 9.85C57.787 9.66667 58.0732 9.40833 58.2839 9.075C58.4985 8.74167 58.6058 8.35 58.6058 7.9C58.6058 7.3375 58.419 6.86042 58.0454 6.46875C57.6718 6.07292 57.0796 5.875 56.2687 5.875H53.4786V10.125Z" fill="#00ABFF"/>
<path d="M66.4487 17.5C65.622 17.5 64.8966 17.2937 64.2726 16.8813C63.6526 16.4688 63.1677 15.8917 62.8179 15.15C62.4721 14.4083 62.2992 13.5417 62.2992 12.55C62.2992 11.55 62.4721 10.6771 62.8179 9.93125C63.1677 9.18542 63.6526 8.60625 64.2726 8.19375C64.8966 7.78125 65.622 7.575 66.4487 7.575C67.2754 7.575 67.9988 7.78125 68.6189 8.19375C69.2429 8.60625 69.7278 9.18542 70.0736 9.93125C70.4233 10.6771 70.5982 11.55 70.5982 12.55C70.5982 13.5417 70.4233 14.4083 70.0736 15.15C69.7278 15.8917 69.2429 16.4688 68.6189 16.8813C67.9988 17.2937 67.2754 17.5 66.4487 17.5ZM66.4487 16.175C67.0767 16.175 67.5934 16.0062 67.9988 15.6687C68.4042 15.3312 68.7043 14.8875 68.8991 14.3375C69.0938 13.7875 69.1912 13.1917 69.1912 12.55C69.1912 11.9083 69.0938 11.3104 68.8991 10.7562C68.7043 10.2021 68.4042 9.75417 67.9988 9.4125C67.5934 9.07083 67.0767 8.9 66.4487 8.9C65.8207 8.9 65.304 9.07083 64.8986 9.4125C64.4932 9.75417 64.1931 10.2021 63.9984 10.7562C63.8036 11.3104 63.7062 11.9083 63.7062 12.55C63.7062 13.1917 63.8036 13.7875 63.9984 14.3375C64.1931 14.8875 64.4932 15.3312 64.8986 15.6687C65.304 16.0062 65.8207 16.175 66.4487 16.175Z" fill="#00ABFF"/>
<path d="M76.4663 17.5C75.6395 17.5 74.9142 17.2937 74.2902 16.8813C73.6701 16.4688 73.1852 15.8917 72.8354 15.15C72.4897 14.4083 72.3168 13.5417 72.3168 12.55C72.3168 11.55 72.4897 10.6771 72.8354 9.93125C73.1852 9.18542 73.6701 8.60625 74.2902 8.19375C74.9142 7.78125 75.6395 7.575 76.4663 7.575C77.293 7.575 78.0164 7.78125 78.6364 8.19375C79.2604 8.60625 79.7453 9.18542 80.0911 9.93125C80.4409 10.6771 80.6158 11.55 80.6158 12.55C80.6158 13.5417 80.4409 14.4083 80.0911 15.15C79.7453 15.8917 79.2604 16.4688 78.6364 16.8813C78.0164 17.2937 77.293 17.5 76.4663 17.5ZM76.4663 16.175C77.0942 16.175 77.6109 16.0062 78.0164 15.6687C78.4218 15.3312 78.7219 14.8875 78.9166 14.3375C79.1114 13.7875 79.2087 13.1917 79.2087 12.55C79.2087 11.9083 79.1114 11.3104 78.9166 10.7562C78.7219 10.2021 78.4218 9.75417 78.0164 9.4125C77.6109 9.07083 77.0942 8.9 76.4663 8.9C75.8383 8.9 75.3216 9.07083 74.9162 9.4125C74.5107 9.75417 74.2107 10.2021 74.0159 10.7562C73.8211 11.3104 73.7238 11.9083 73.7238 12.55C73.7238 13.1917 73.8211 13.7875 74.0159 14.3375C74.2107 14.8875 74.5107 15.3312 74.9162 15.6687C75.3216 16.0062 75.8383 16.175 76.4663 16.175Z" fill="#00ABFF"/>
<path d="M84.0752 13.8L84.0513 11.975H84.3375L88.3439 7.7H90.0848L85.816 12.225H85.6968L84.0752 13.8ZM82.7635 17.3V4.5H84.1706V17.3H82.7635ZM88.5824 17.3L85.0052 12.55L86.0068 11.525L90.371 17.3H88.5824Z" fill="#00ABFF"/>
<path d="M96.8084 17.3V4.5H100.934C101.888 4.5 102.671 4.67083 103.283 5.0125C103.895 5.35 104.348 5.81458 104.642 6.40625C104.936 6.99792 105.084 7.67083 105.084 8.425C105.084 9.17917 104.936 9.84792 104.642 10.4312C104.348 11.0146 103.897 11.4729 103.289 11.8062C102.681 12.1354 101.904 12.3 100.958 12.3H97.6192V10.9H100.91C101.562 10.9 102.087 10.8 102.484 10.6C102.886 10.4 103.176 10.1167 103.355 9.75C103.537 9.37917 103.629 8.9375 103.629 8.425C103.629 7.9125 103.537 7.46458 103.355 7.08125C103.172 6.69792 102.88 6.40208 102.478 6.19375C102.077 5.98125 101.546 5.875 100.886 5.875H98.2869V17.3H96.8084ZM102.556 11.55L105.56 17.3H103.843L100.886 11.55H102.556Z" fill="#00ABFF"/>
<path d="M111.098 17.5C110.215 17.5 109.454 17.2958 108.814 16.8875C108.178 16.475 107.687 15.9 107.342 15.1625C107 14.4208 106.829 13.5583 106.829 12.575C106.829 11.5917 107 10.725 107.342 9.975C107.687 9.22083 108.168 8.63333 108.784 8.2125C109.404 7.7875 110.128 7.575 110.955 7.575C111.431 7.575 111.902 7.65833 112.367 7.825C112.833 7.99167 113.256 8.2625 113.637 8.6375C114.019 9.00833 114.323 9.5 114.55 10.1125C114.776 10.725 114.889 11.4792 114.889 12.375V13H107.83V11.725H113.459C113.459 11.1833 113.355 10.7 113.149 10.275C112.946 9.85 112.656 9.51458 112.278 9.26875C111.904 9.02292 111.463 8.9 110.955 8.9C110.394 8.9 109.909 9.04583 109.5 9.3375C109.094 9.625 108.782 10 108.564 10.4625C108.345 10.925 108.236 11.4208 108.236 11.95V12.8C108.236 13.525 108.355 14.1396 108.594 14.6438C108.836 15.1438 109.172 15.525 109.601 15.7875C110.03 16.0458 110.529 16.175 111.098 16.175C111.467 16.175 111.801 16.1208 112.099 16.0125C112.401 15.9 112.662 15.7333 112.88 15.5125C113.099 15.2875 113.268 15.0083 113.387 14.675L114.746 15.075C114.603 15.5583 114.363 15.9833 114.025 16.35C113.687 16.7125 113.27 16.9958 112.773 17.2C112.276 17.4 111.718 17.5 111.098 17.5Z" fill="#00ABFF"/>
<path d="M118.437 11.525V17.3H117.03V7.7H118.389V9.2H118.508C118.723 8.7125 119.049 8.32083 119.486 8.025C119.923 7.725 120.488 7.575 121.179 7.575C121.799 7.575 122.342 7.70833 122.807 7.975C123.272 8.2375 123.634 8.6375 123.892 9.175C124.15 9.70833 124.279 10.3833 124.279 11.2V17.3H122.872V11.3C122.872 10.5458 122.686 9.95833 122.312 9.5375C121.938 9.1125 121.426 8.9 120.774 8.9C120.325 8.9 119.923 9.00208 119.569 9.20625C119.22 9.41042 118.943 9.70833 118.741 10.1C118.538 10.4917 118.437 10.9667 118.437 11.525Z" fill="#00ABFF"/>
<path d="M130.833 7.7V8.95H126.087V7.7H130.833ZM127.471 5.4H128.878V14.55C128.878 14.9667 128.935 15.2792 129.05 15.4875C129.17 15.6917 129.321 15.8292 129.504 15.9C129.69 15.9667 129.887 16 130.094 16C130.249 16 130.376 15.9917 130.475 15.975C130.575 15.9542 130.654 15.9375 130.714 15.925L131 17.25C130.905 17.2875 130.771 17.325 130.601 17.3625C130.43 17.4042 130.213 17.425 129.951 17.425C129.553 17.425 129.164 17.3354 128.782 17.1562C128.405 16.9771 128.091 16.7042 127.84 16.3375C127.594 15.9708 127.471 15.5083 127.471 14.95V5.4Z" fill="#00ABFF"/>
</svg>
