<svg width="277" height="207" viewBox="0 0 277 207" fill="none" xmlns="http://www.w3.org/2000/svg">
<g clip-path="url(#clip0_3880_138650)">
<path d="M202.264 196.681H196.752L194.129 175.426H202.264V196.681Z" fill="#9E616A"/>
<path d="M205.174 206.229H201.221L200.516 202.498L198.709 206.229H188.226C187.723 206.229 187.234 206.069 186.829 205.771C186.424 205.473 186.125 205.054 185.976 204.574C185.826 204.095 185.834 203.58 185.998 203.105C186.162 202.63 186.473 202.22 186.887 201.934L195.258 196.153V192.381L204.063 192.907L205.174 206.229Z" fill="#323B49"/>
<path d="M235.008 189.727L230.585 193.015L215.795 177.523L222.323 172.67L235.008 189.727Z" fill="#9E616A"/>
<path d="M243.04 195.653L239.869 198.011L237.076 195.438L237.853 199.51L229.44 205.765C229.037 206.064 228.549 206.227 228.046 206.23C227.544 206.233 227.054 206.075 226.647 205.779C226.241 205.483 225.94 205.065 225.788 204.586C225.636 204.108 225.641 203.593 225.803 203.117L229.07 193.483L226.819 190.457L234.199 185.625L243.04 195.653Z" fill="#323B49"/>
<path d="M208.681 87.0138C208.681 87.0138 219.138 96.0471 214.314 121.799L208.423 147.031L227.633 178.896L221.508 186.347L196.535 151.856L187.485 130.632L184.945 92.8554L208.681 87.0138Z" fill="#323B49"/>
<path d="M192.473 136.68L191.844 146.42L193.769 187.924L202.826 186.346L204.557 156.796L192.473 136.68Z" fill="#323B49"/>
<path d="M76.2389 201.679L81.1679 201.679L83.5124 182.67L76.2383 182.671L76.2389 201.679Z" fill="#FFB6B6"/>
<path d="M74.9824 200.07L76.3697 200.07L81.7861 197.867L84.689 200.069H84.6894C86.33 200.069 87.9033 200.721 89.0633 201.881C90.2234 203.041 90.8751 204.614 90.8752 206.254V206.455L74.9827 206.456L74.9824 200.07Z" fill="#323B49"/>
<path d="M95.3398 198.573L100.147 199.659L106.622 181.634L99.5268 180.032L95.3398 198.573Z" fill="#FFB6B6"/>
<path d="M94.4672 196.727L95.8204 197.032L101.589 196.077L103.935 198.864L103.936 198.864C105.536 199.226 106.927 200.208 107.803 201.595C108.679 202.982 108.968 204.66 108.607 206.26L108.563 206.456L93.0605 202.956L94.4672 196.727Z" fill="#323B49"/>
<path d="M69.9964 85.4715C67.6855 92.4401 67.9298 100.004 70.5518 108.123L71.6727 153.831C71.6727 153.831 70.0027 183.806 75.3914 194.354H83.2066L87.076 151.094L87.5619 122.057L104.317 146.554L93.6451 193.647L103.264 194.506L120.581 143.4L99.215 93.8185L69.9964 85.4715Z" fill="#323B49"/>
<path d="M160.124 65.6224C166.101 60.2365 174.993 57.5284 182.451 60.5484C174.8 64.7953 168.899 71.6111 165.791 79.7897C164.603 82.9482 163.612 86.5849 160.691 88.2758C158.874 89.328 156.613 89.3795 154.576 88.8716C152.538 88.3636 150.671 87.3453 148.829 86.3372L148.305 86.3254C150.658 78.6315 154.146 71.0083 160.124 65.6224Z" fill="#E6E6E6"/>
<path d="M182.409 60.712C175.804 61.5655 169.635 64.4783 164.78 69.0367C163.717 69.9994 162.813 71.1237 162.1 72.368C161.445 73.6025 161.133 74.9899 161.196 76.386C161.228 77.6888 161.412 79.0178 161.127 80.3058C160.971 80.963 160.678 81.5798 160.267 82.1158C159.857 82.6519 159.337 83.095 158.743 83.4162C157.283 84.2551 155.609 84.5195 153.963 84.7213C152.136 84.9453 150.234 85.149 148.652 86.1739C148.46 86.2981 148.279 85.9934 148.47 85.8694C151.222 84.0862 154.705 84.7351 157.665 83.5449C159.046 82.9896 160.268 82.0148 160.701 80.5409C161.079 79.2521 160.89 77.8815 160.846 76.5626C160.765 75.2016 161.018 73.8414 161.584 72.6009C162.231 71.3244 163.091 70.1672 164.126 69.1789C166.421 66.9169 169.058 65.0297 171.939 63.5865C175.218 61.9212 178.758 60.8291 182.406 60.3574C182.632 60.3283 182.634 60.6831 182.409 60.712Z" fill="white"/>
<path d="M166.257 67.4769C165.603 66.5585 165.296 65.4375 165.392 64.3141C165.488 63.1906 165.981 62.1379 166.781 61.3438C166.944 61.1837 167.2 61.4288 167.037 61.5891C166.291 62.3271 165.832 63.3078 165.745 64.3542C165.658 65.4005 165.947 66.4436 166.562 67.2951C166.695 67.4803 166.39 67.661 166.257 67.4769Z" fill="white"/>
<path d="M161.093 75.7275C163.363 76.1296 165.701 75.6615 167.641 74.4166C167.833 74.2931 168.015 74.5977 167.823 74.721C165.802 76.0128 163.367 76.495 161.006 76.0713C160.781 76.0308 160.869 75.6872 161.093 75.7275Z" fill="white"/>
<path d="M175.247 62.3905C175.427 62.7986 175.704 63.1558 176.056 63.4301C176.407 63.7043 176.821 63.887 177.26 63.9618C177.486 63.9995 177.397 64.343 177.173 64.3056C176.688 64.2208 176.231 64.0184 175.843 63.7163C175.454 63.4141 175.145 63.0214 174.943 62.5723C174.92 62.5316 174.914 62.4838 174.925 62.4386C174.937 62.3935 174.965 62.3543 175.004 62.3292C175.045 62.3053 175.093 62.2984 175.138 62.3099C175.184 62.3213 175.223 62.3503 175.247 62.3905Z" fill="white"/>
<path d="M190.664 86.5218C190.522 86.5023 190.381 86.4828 190.237 86.4655C188.335 86.2129 186.414 86.1154 184.496 86.1738C184.347 86.176 184.197 86.1804 184.049 86.1868C179.428 86.3768 174.883 87.423 170.644 89.272C168.958 90.0094 167.33 90.8739 165.775 91.8582C163.628 93.2175 161.408 94.8623 159.007 95.4167C158.757 95.4774 158.504 95.5225 158.249 95.5518L148.331 86.9655C148.318 86.9347 148.303 86.9061 148.291 86.8751L147.879 86.5504C147.956 86.4941 148.036 86.4373 148.113 86.3809C148.157 86.348 148.204 86.317 148.248 86.2842C148.278 86.2629 148.309 86.2416 148.335 86.2207C148.345 86.2135 148.355 86.2065 148.363 86.2016C148.389 86.1806 148.416 86.1639 148.44 86.1452C148.89 85.8265 149.343 85.5103 149.8 85.1967C149.802 85.1945 149.802 85.1945 149.806 85.1941C153.26 82.7715 156.989 80.7671 160.916 79.223C161.033 79.1785 161.153 79.1317 161.275 79.0911C163.043 78.4337 164.863 77.9219 166.714 77.5609C167.729 77.3664 168.752 77.2234 169.781 77.1325C172.441 76.9026 175.119 77.0924 177.72 77.6948C182.903 78.8966 187.644 81.7424 190.453 86.1806C190.524 86.2942 190.594 86.406 190.664 86.5218Z" fill="#E6E6E6"/>
<path d="M190.532 86.6284C184.744 83.3335 178.065 81.9458 171.443 82.6625C170.015 82.7915 168.616 83.1448 167.298 83.7093C166.032 84.3008 164.947 85.2205 164.156 86.3729C163.397 87.4326 162.744 88.6044 161.741 89.4612C161.221 89.8922 160.615 90.2084 159.965 90.3891C159.314 90.5698 158.632 90.6109 157.964 90.5097C156.294 90.3008 154.798 89.5042 153.362 88.6744C151.768 87.7531 150.127 86.7708 148.247 86.6368C148.019 86.6206 148.057 86.2681 148.285 86.2843C151.556 86.5174 153.946 89.1321 157.026 89.9635C158.463 90.3514 160.026 90.3087 161.259 89.3923C162.337 88.5909 163.012 87.3831 163.771 86.3035C164.525 85.168 165.547 84.2345 166.746 83.5847C168.031 82.9548 169.414 82.5483 170.835 82.3824C174.03 81.9579 177.272 82.0382 180.441 82.6205C184.062 83.2649 187.547 84.524 190.743 86.3432C190.941 86.4559 190.729 86.7403 190.532 86.6284Z" fill="white"/>
<path d="M173.563 82.3063C173.593 81.1791 174.023 80.0995 174.777 79.2603C175.53 78.4211 176.557 77.8769 177.674 77.7249C177.9 77.6949 177.958 78.0449 177.731 78.075C176.69 78.2146 175.734 78.7216 175.034 79.5045C174.334 80.2875 173.937 81.2947 173.915 82.3444C173.91 82.5725 173.557 82.5331 173.563 82.3063Z" fill="white"/>
<path d="M164.471 85.7849C166.041 87.4724 168.189 88.5062 170.488 88.68C170.716 88.6971 170.678 89.0496 170.45 89.0326C168.058 88.8472 165.824 87.7669 164.194 86.0072C164.039 85.8394 164.316 85.618 164.471 85.7849Z" fill="white"/>
<path d="M183.803 83.657C183.7 84.0906 183.706 84.543 183.822 84.9735C183.937 85.4039 184.158 85.799 184.463 86.1232C184.621 86.289 184.343 86.5102 184.187 86.3455C183.851 85.9857 183.608 85.5491 183.479 85.0738C183.351 84.5985 183.341 84.099 183.45 83.6188C183.456 83.5727 183.48 83.5308 183.517 83.5016C183.553 83.4724 183.599 83.4581 183.645 83.4616C183.692 83.4669 183.735 83.4904 183.764 83.527C183.794 83.5636 183.807 83.6103 183.803 83.657Z" fill="white"/>
<path d="M16.463 201.334C15.9974 203.08 14.7741 204.534 13.2971 205.594C13.0563 205.767 12.8091 205.928 12.5586 206.079C12.4816 206.124 12.4045 206.172 12.3242 206.213C12.2375 206.265 12.1508 206.313 12.0641 206.358H5.1191C4.99388 206.104 4.87187 205.847 4.74986 205.594C1.77341 199.34 -0.31684 192.592 0.0395627 185.718C0.180961 183.052 0.741148 180.425 1.69956 177.933C3.6068 172.967 7.08735 168.668 11.8747 166.504C11.9935 166.45 12.1187 166.395 12.2407 166.344C12.2022 166.482 12.1637 166.617 12.1252 166.755C11.6116 168.605 11.2486 170.493 11.0399 172.402C11.0206 172.55 11.0046 172.697 10.9917 172.848C10.5356 177.451 10.9406 182.099 12.1862 186.553C12.1894 186.563 12.1926 186.576 12.1958 186.585C12.4687 187.571 12.7855 188.541 13.1462 189.497C13.4288 190.251 13.7338 190.996 14.0677 191.728C15.4612 194.801 17.3299 198.075 16.463 201.334Z" fill="#E6E6E6"/>
<path d="M12.328 166.488C12.2606 166.578 12.1932 166.665 12.1258 166.755C10.7155 168.624 9.51796 170.644 8.55531 172.777C8.50393 172.883 8.45577 172.989 8.41403 173.099C7.09501 176.078 6.24791 179.245 5.90315 182.486C5.89942 182.508 5.89728 182.53 5.89674 182.553C5.81646 183.311 5.7683 184.075 5.74903 184.839C5.67764 186.271 5.83259 187.705 6.20818 189.089C6.55065 190.219 7.15077 191.255 7.9613 192.114C8.04157 192.2 8.12184 192.287 8.20854 192.37C8.27275 192.438 8.34339 192.505 8.41082 192.569C9.05941 193.189 9.769 193.764 10.3791 194.428C10.6587 194.726 10.9112 195.049 11.1336 195.391C11.4886 195.966 11.7179 196.609 11.8064 197.279C11.895 197.948 11.8407 198.629 11.6473 199.276C11.2107 200.9 10.2121 202.271 9.19105 203.578C8.68053 204.233 8.15395 204.894 7.69801 205.594C7.53106 205.844 7.37693 206.098 7.23567 206.358H6.8311C6.96596 206.098 7.11366 205.844 7.2742 205.594C8.44616 203.748 10.1126 202.162 10.9763 200.13C11.5607 198.759 11.7373 197.205 10.9988 195.86C10.7823 195.469 10.5204 195.105 10.2185 194.775C9.63096 194.11 8.92778 193.542 8.28883 192.942C8.12829 192.791 7.97095 192.637 7.82004 192.476C7.01997 191.664 6.40258 190.689 6.00913 189.619C5.56356 188.26 5.35291 186.834 5.38623 185.404C5.38623 184.492 5.43439 183.574 5.5243 182.662C5.53393 182.547 5.54677 182.428 5.55962 182.309C6.21625 176.572 8.39696 171.115 11.8753 166.504C11.9395 166.415 12.007 166.328 12.0744 166.241C12.2125 166.061 12.4661 166.312 12.328 166.488Z" fill="white"/>
<path d="M5.68943 182.693C4.57729 182.506 3.56777 181.93 2.84114 181.068C2.11451 180.205 1.7181 179.113 1.7227 177.985C1.72331 177.939 1.74175 177.895 1.77413 177.863C1.80651 177.83 1.8503 177.811 1.89628 177.81C1.94226 177.809 1.98683 177.826 2.02061 177.857C2.05438 177.889 2.07473 177.932 2.07735 177.978C2.07113 179.027 2.44049 180.045 3.11877 180.847C3.79704 181.648 4.73955 182.181 5.77619 182.349C6.00142 182.385 5.91337 182.729 5.68943 182.693Z" fill="white"/>
<path d="M7.87155 192.178C9.76101 190.858 11.0833 188.874 11.5747 186.622C11.6232 186.398 11.967 186.485 11.9185 186.708C11.4028 189.051 10.0226 191.113 8.05337 192.483C7.86558 192.613 7.68478 192.308 7.87155 192.178Z" fill="white"/>
<path d="M8.44806 172.74C8.86331 172.902 9.31228 172.958 9.75465 172.904C10.197 172.849 10.6189 172.686 10.9825 172.428C11.1686 172.295 11.3492 172.601 11.1643 172.732C10.7613 173.015 10.2951 173.195 9.8065 173.257C9.31788 173.318 8.8217 173.258 8.3613 173.084C8.31652 173.071 8.27831 173.042 8.25443 173.002C8.23055 172.962 8.2228 172.914 8.23274 172.868C8.24446 172.823 8.27365 172.784 8.31397 172.76C8.35429 172.736 8.40248 172.729 8.44806 172.74Z" fill="white"/>
<path d="M36.416 178.903C36.3036 178.99 36.188 179.076 36.0756 179.166C34.5512 180.333 33.1241 181.621 31.8084 183.019C31.7057 183.125 31.6029 183.234 31.5034 183.343L31.5002 183.346C28.3805 186.732 25.9138 190.666 24.2244 194.948L24.2148 194.977C24.2116 194.987 24.2083 194.993 24.2051 195.003C23.5355 196.717 22.9956 198.479 22.5901 200.274C22.1984 202.027 21.8773 203.905 21.264 205.594C21.1709 205.854 21.0681 206.111 20.959 206.358H6.68359C6.73176 206.104 6.78313 205.847 6.8345 205.594C7.56068 201.874 8.69564 198.246 10.2187 194.775C10.2701 194.659 10.3215 194.544 10.3793 194.428C11.1655 192.713 12.0901 191.065 13.1438 189.5L13.144 189.499L13.1447 189.498L13.1458 189.497L13.147 189.497C13.7256 188.643 14.3472 187.819 15.0093 187.028C16.7265 184.986 18.755 183.226 21.02 181.815C21.0328 181.805 21.0489 181.799 21.0617 181.789C25.5697 178.993 30.9126 177.66 36.021 178.813H36.0242C36.1559 178.842 36.2843 178.871 36.416 178.903Z" fill="#E6E6E6"/>
<path d="M36.3986 179.073C36.2894 179.102 36.1802 179.134 36.0743 179.166C33.824 179.809 31.652 180.699 29.598 181.821C29.4953 181.876 29.3925 181.933 29.2898 181.991C26.4513 183.575 23.8747 185.588 21.6512 187.959C21.6495 187.961 21.6483 187.963 21.648 187.966C21.6223 187.991 21.5934 188.02 21.5709 188.046C21.0572 188.598 20.5627 189.173 20.0939 189.764C19.177 190.865 18.4381 192.103 17.9042 193.433C17.4962 194.541 17.3521 195.73 17.4835 196.903C17.4932 197.022 17.5092 197.138 17.5253 197.257C17.5381 197.35 17.551 197.443 17.567 197.539C17.7789 198.826 18.145 200.117 18.0422 201.43C17.9797 202.103 17.7754 202.755 17.4428 203.343C17.1102 203.931 16.6569 204.442 16.1125 204.843C15.7425 205.129 15.347 205.38 14.9309 205.594C14.3361 205.9 13.7163 206.156 13.0783 206.358H11.8164C11.9866 206.31 12.1535 206.262 12.3237 206.213C12.9276 206.043 13.5206 205.836 14.0993 205.594C14.4299 205.456 14.7516 205.297 15.0626 205.119C16.3533 204.377 17.429 203.241 17.6537 201.722C17.8496 200.393 17.4707 199.064 17.2459 197.764C17.2074 197.539 17.1721 197.318 17.1528 197.096C16.9995 195.97 17.0926 194.824 17.4257 193.738C17.8877 192.383 18.5784 191.117 19.4678 189.995C20.018 189.264 20.6053 188.562 21.2274 187.892C21.3044 187.805 21.3847 187.719 21.4682 187.632C23.7384 185.244 26.3597 183.216 29.2416 181.619H29.2448C31.3877 180.426 33.661 179.485 36.0197 178.813H36.0229C36.1289 178.781 36.238 178.749 36.344 178.72C36.5655 178.662 36.6169 179.012 36.3986 179.073Z" fill="white"/>
<path d="M21.3417 188.014C20.5662 187.195 20.107 186.127 20.046 185.002C19.9851 183.876 20.3264 182.765 21.009 181.867C21.1478 181.686 21.4358 181.893 21.2969 182.075C20.6597 182.909 20.3418 183.944 20.4007 184.992C20.4596 186.041 20.8913 187.033 21.618 187.791C21.7757 187.956 21.4985 188.178 21.3417 188.014Z" fill="white"/>
<path d="M17.3729 196.901C19.6766 196.985 21.9271 196.196 23.6755 194.694C23.8486 194.545 24.0707 194.822 23.8978 194.97C22.0755 196.53 19.7319 197.346 17.3347 197.254C17.1062 197.245 17.1456 196.893 17.3729 196.901Z" fill="white"/>
<path d="M29.5378 181.728C29.7719 182.108 30.0965 182.423 30.4825 182.646C30.8684 182.869 31.3038 182.992 31.7493 183.005C31.9778 183.011 31.9381 183.364 31.7111 183.358C31.2189 183.341 30.7384 183.204 30.3114 182.959C29.8843 182.713 29.5239 182.367 29.2615 181.951C29.2335 181.914 29.2207 181.867 29.2257 181.821C29.2307 181.774 29.2531 181.732 29.2885 181.701C29.3252 181.672 29.372 181.659 29.4187 181.664C29.4654 181.669 29.5082 181.692 29.5378 181.728Z" fill="white"/>
<path d="M146.537 55.581C146.207 56.0144 145.787 56.3703 145.305 56.6235C144.823 56.8768 144.291 57.0214 143.747 57.047C143.204 57.0727 142.661 56.9788 142.157 56.7719C141.653 56.5651 141.201 56.2503 140.832 55.8499L128.695 61.1278L129.878 54.3534L141.222 50.38C141.936 49.8051 142.836 49.5119 143.752 49.5562C144.667 49.6004 145.535 49.9789 146.19 50.62C146.845 51.2611 147.242 52.1202 147.306 53.0346C147.37 53.9489 147.097 54.8549 146.537 55.581Z" fill="#FFB8B8"/>
<path d="M138.437 57.6962L110.246 70.2514L110.186 70.2297L78.0561 58.7819C75.6628 57.5313 73.8382 55.4133 72.9559 52.8615C72.0735 50.3098 72.2002 47.5172 73.3099 45.0558C73.925 43.6958 74.8212 42.4815 75.9395 41.4928C77.0579 40.5041 78.3729 39.7634 79.7982 39.3195C81.2234 38.8756 82.7265 38.7386 84.2086 38.9174C85.6906 39.0962 87.118 39.5868 88.3967 40.3569L112.307 54.7583L135.493 51.7538L138.437 57.6962Z" fill="#E6E6E6"/>
<path d="M276.999 206.618C276.999 206.668 276.989 206.718 276.97 206.764C276.951 206.811 276.923 206.853 276.888 206.888C276.852 206.924 276.81 206.952 276.763 206.971C276.717 206.99 276.667 207 276.617 207H0.391851C0.290515 207 0.193332 206.96 0.121677 206.888C0.0500209 206.816 0.00976562 206.719 0.00976562 206.618C0.00976562 206.517 0.0500209 206.42 0.121677 206.348C0.193332 206.276 0.290515 206.236 0.391851 206.236H276.617C276.667 206.236 276.717 206.246 276.763 206.265C276.81 206.284 276.852 206.312 276.888 206.348C276.923 206.383 276.951 206.425 276.97 206.472C276.989 206.518 276.999 206.568 276.999 206.618Z" fill="#CCCCCC"/>
<path d="M100.609 95.2826L72.1915 90.7378C71.4462 90.4991 70.7614 90.102 70.1841 89.5737C69.6067 89.0454 69.1506 88.3985 68.8469 87.6773C68.5432 86.9561 68.3992 86.1778 68.4248 85.3957C68.4503 84.6136 68.6449 83.8463 68.995 83.1465L70.2837 80.5691L69.7831 53.4908C69.7228 49.9685 70.5912 46.4925 72.3011 43.4124C74.011 40.3323 76.5021 37.7567 79.5236 35.9449L82.2949 34.2881L83.6954 30.7321L96.6094 31.0471L96.6471 35.7109L101.272 43.0845L101.272 43.1151L100.982 83.2491L99.7069 87.3909L101.634 92.2083L100.609 95.2826Z" fill="#E6E6E6"/>
<path d="M91.3353 26.3103C97.8157 26.3103 103.069 21.0577 103.069 14.5783C103.069 8.09885 97.8157 2.84625 91.3353 2.84625C84.8549 2.84625 79.6016 8.09885 79.6016 14.5783C79.6016 21.0577 84.8549 26.3103 91.3353 26.3103Z" fill="#FFB8B8"/>
<path d="M79.116 17.1358C78.766 15.6617 78.9267 13.5872 79.1245 12.1029C79.643 8.21154 81.8044 4.51209 85.0881 2.32078C85.7107 1.84795 86.4506 1.55397 87.228 1.47053C88.0048 1.4381 88.8469 1.8539 89.0853 2.59383C89.281 2.10548 89.5748 1.6624 89.9484 1.29196C90.322 0.921515 90.7676 0.631562 91.2576 0.439999C92.242 0.062895 93.3008 -0.0797167 94.3499 0.0234681C96.3834 0.191062 98.3336 0.905986 99.9935 2.09237C101.653 3.27875 102.961 4.89232 103.778 6.76186C104.091 7.50628 104.967 4.7566 105.364 5.45997C105.729 6.19108 106.365 6.75035 107.137 7.01809C107.916 7.23517 108.232 10.4405 108.538 9.69304C108.775 10.2454 108.869 10.8489 108.811 11.4473C108.752 12.0457 108.543 12.6196 108.203 13.1155C107.863 13.6114 107.403 14.0132 106.866 14.2835C106.329 14.5537 105.732 14.6836 105.131 14.6612C104.339 14.6315 103.582 14.3403 102.799 14.2149C100.001 13.7666 97.0325 15.7954 96.4343 18.5652C96.2201 17.7642 95.8779 17.0031 95.421 16.3112C95.1891 15.967 94.8783 15.6833 94.5146 15.4834C94.1509 15.2836 93.7446 15.1735 93.3298 15.1623C92.5336 15.1921 91.8338 15.7125 91.3172 16.319C90.8007 16.9254 90.4127 17.633 89.8923 18.2361C88.3654 20.006 86.3002 24.1335 84.1242 23.8325C82.407 23.5949 79.5939 19.1486 79.116 17.1358Z" fill="#323B49"/>
<path d="M162.264 68.8754C162.346 68.3405 162.236 67.7939 161.954 67.3323C161.671 66.8708 161.234 66.5243 160.721 66.3541L129.122 55.8314C128.819 55.7301 128.498 55.6933 128.18 55.7233L120.26 56.4722L115.715 56.9032L107.329 57.6956C106.823 57.744 106.347 57.9591 105.976 58.3071C105.605 58.6551 105.36 59.1164 105.279 59.6185L101.021 86.2125C100.941 86.7312 101.04 87.2619 101.301 87.7169C101.563 88.1719 101.972 88.5241 102.461 88.7152L134.39 101.038C134.54 101.096 134.696 101.138 134.854 101.163C135.086 101.2 135.321 101.202 135.553 101.168L156.184 98.1106C156.671 98.0402 157.122 97.8148 157.47 97.4678C157.819 97.1209 158.046 96.6709 158.118 96.1847L162.264 68.8754Z" fill="white"/>
<path d="M103.185 86.8415L135.114 99.1636C135.16 99.182 135.211 99.188 135.261 99.1808L155.889 96.1238C155.95 96.1155 156.007 96.0874 156.051 96.0438C156.095 96.0003 156.123 95.9437 156.132 95.8825L160.28 68.573C160.289 68.5063 160.275 68.4384 160.24 68.3809C160.205 68.3235 160.151 68.28 160.088 68.2579L159.875 68.186L128.487 57.7376C128.472 57.7325 128.458 57.7289 128.443 57.7269C128.418 57.7224 128.393 57.7212 128.369 57.7231L109.051 59.5508L107.518 59.6946C107.455 59.7014 107.396 59.7284 107.35 59.7718C107.304 59.8151 107.273 59.8723 107.263 59.9347L103.006 86.5276C102.995 86.5926 103.007 86.6591 103.04 86.7162C103.073 86.7733 103.124 86.8175 103.185 86.8415Z" fill="#3636F0"/>
<path d="M109.051 59.5508L128.369 57.7231C128.393 57.7212 128.418 57.7224 128.442 57.7269C128.457 57.7289 128.472 57.7325 128.487 57.7376L159.875 68.186L151.595 69.0623L148.497 69.3887L139.68 70.3201C139.654 70.3214 139.628 70.3211 139.602 70.3192C139.587 70.3145 139.571 70.3097 139.552 70.3047L109.051 59.5508Z" fill="#323B49"/>
<path d="M102.461 88.7169L134.389 101.039C134.539 101.097 134.696 101.138 134.855 101.161C135.086 101.199 135.322 101.202 135.554 101.17L156.183 98.1127C156.67 98.0418 157.121 97.8161 157.469 97.469C157.818 97.1218 158.045 96.6717 158.118 96.1852L162.263 68.8754C162.325 68.4727 162.278 68.0611 162.129 67.6822C162.108 67.6318 162.087 67.5814 162.063 67.5339C161.898 67.188 161.648 66.8898 161.336 66.6679C161.148 66.533 160.94 66.4272 160.721 66.3544L160.683 66.3411L129.123 55.8312C128.994 55.7901 128.863 55.7581 128.729 55.7355C128.547 55.7097 128.362 55.7061 128.179 55.7248L120.26 56.4711L115.716 56.9045L107.328 57.6964C106.985 57.7284 106.653 57.8379 106.359 58.0166C106.336 58.0276 106.314 58.0406 106.294 58.0555C106.279 58.065 106.265 58.0756 106.252 58.087C105.995 58.2626 105.776 58.4888 105.609 58.7517C105.442 59.0146 105.33 59.3088 105.28 59.6163L101.019 86.2121C100.939 86.7312 101.038 87.2623 101.3 87.7177C101.562 88.1731 101.971 88.5255 102.461 88.7169ZM105.846 59.709C105.897 59.3903 106.039 59.0928 106.253 58.8514C106.318 58.7738 106.391 58.7029 106.47 58.6399C106.687 58.4648 106.943 58.3454 107.216 58.292C107.27 58.2808 107.325 58.2731 107.38 58.2689L121.503 56.9349L128.234 56.2945C128.28 56.2891 128.321 56.2899 128.364 56.2875C128.466 56.2854 128.567 56.2929 128.668 56.3101C128.76 56.3221 128.851 56.3437 128.939 56.3747L160.536 66.8979C160.561 66.9068 160.583 66.9153 160.608 66.9241C160.895 67.031 161.148 67.2146 161.338 67.455C161.488 67.639 161.598 67.8527 161.66 68.082C161.722 68.3114 161.735 68.5512 161.698 68.7858L157.549 96.0986C157.495 96.4629 157.325 96.8 157.064 97.0602C156.803 97.3204 156.466 97.4899 156.102 97.5438L135.47 100.6C135.175 100.643 134.873 100.608 134.595 100.501L102.667 88.1819C102.301 88.0377 101.994 87.7734 101.798 87.4324C101.602 87.0914 101.528 86.6939 101.588 86.3051L105.846 59.709Z" fill="#323B49"/>
<path d="M106.183 58.232C106.2 58.1836 106.23 58.1408 106.269 58.108C106.282 58.0976 106.296 58.0881 106.311 58.0797C106.324 58.0746 106.338 58.0662 106.351 58.061C106.415 58.0353 106.487 58.034 106.552 58.0576L107.216 58.292L139.683 69.7432L147.281 68.9405L151.533 68.4921L160.533 67.5394L161.338 67.4551L161.494 67.4378C161.562 67.4316 161.629 67.4492 161.685 67.4875C161.741 67.5258 161.782 67.5824 161.8 67.6476C161.804 67.6626 161.807 67.678 161.809 67.6935C161.815 67.7553 161.802 67.8176 161.77 67.871C161.738 67.9244 161.69 67.966 161.632 67.9895C161.607 68 161.58 68.0072 161.553 68.0109L160.458 68.1256L151.595 69.0623L148.496 69.3887L139.679 70.3201C139.654 70.3214 139.628 70.3211 139.602 70.3192C139.586 70.3145 139.571 70.3097 139.552 70.3047L106.47 58.64L106.358 58.6002C106.332 58.5918 106.308 58.5785 106.287 58.5612C106.237 58.5245 106.2 58.4728 106.182 58.4136C106.163 58.3544 106.163 58.2908 106.183 58.232Z" fill="#323B49"/>
<path d="M134.943 101.245C134.868 101.233 134.801 101.192 134.756 101.131C134.712 101.07 134.693 100.993 134.704 100.918L139.366 69.9917C139.377 69.9164 139.418 69.8488 139.479 69.8036C139.54 69.7584 139.617 69.7394 139.692 69.7507L139.695 69.7511C139.769 69.7631 139.836 69.8041 139.881 69.8651C139.926 69.9262 139.944 70.0024 139.933 70.0772L135.272 101.004C135.261 101.079 135.22 101.147 135.159 101.192C135.097 101.237 135.021 101.256 134.945 101.245L134.943 101.245Z" fill="#323B49"/>
<path d="M146.756 99.2827L143.656 99.6098L147.282 68.9396C147.282 68.9396 151.423 68.1901 151.533 68.4907C151.601 68.6701 146.786 99.086 146.756 99.2827Z" fill="#323B49"/>
<path d="M106.359 58.5998L106.275 72.5864L131.039 82.021L139.932 70.0772L106.359 58.5998Z" fill="#323B49"/>
<path d="M161.339 67.4555C161.132 67.1953 160.853 67.0015 160.537 66.898L128.941 56.3752C128.852 56.3453 128.761 56.3231 128.669 56.3088C128.568 56.2915 128.466 56.2839 128.363 56.286L128.415 55.9658L128.731 55.7368L136.234 50.3053L161.292 57.9835L161.335 66.6681L161.339 67.4555Z" fill="#323B49"/>
<path d="M107.621 81.053C107.656 81.0564 107.692 81.0638 107.725 81.075L117.42 84.2586C117.542 84.2985 117.642 84.3849 117.7 84.4988C117.757 84.6128 117.767 84.745 117.728 84.8664C117.688 84.9877 117.601 85.0883 117.487 85.146C117.373 85.2036 117.241 85.2136 117.12 85.1738L107.425 81.9901C107.313 81.9531 107.218 81.876 107.158 81.7734C107.099 81.6708 107.08 81.55 107.104 81.4341C107.128 81.3181 107.194 81.2152 107.29 81.1449C107.385 81.0746 107.503 81.0418 107.621 81.053Z" fill="white"/>
<path d="M146.736 139.727C148.864 139.727 150.589 138.002 150.589 135.874C150.589 133.747 148.864 132.022 146.736 132.022C144.608 132.022 142.883 133.747 142.883 135.874C142.883 138.002 144.608 139.727 146.736 139.727Z" fill="#F2F2F2"/>
<path d="M48.4839 153.852C50.6118 153.852 52.3369 152.128 52.3369 150C52.3369 147.872 50.6118 146.147 48.4839 146.147C46.3559 146.147 44.6309 147.872 44.6309 150C44.6309 152.128 46.3559 153.852 48.4839 153.852Z" fill="#F2F2F2"/>
<path d="M128.755 26.4007C130.883 26.4007 132.608 24.6759 132.608 22.5483C132.608 20.4207 130.883 18.6959 128.755 18.6959C126.627 18.6959 124.902 20.4207 124.902 22.5483C124.902 24.6759 126.627 26.4007 128.755 26.4007Z" fill="#F2F2F2"/>
<path d="M135.077 86.7189C134.577 86.9359 134.036 87.0407 133.492 87.026C132.948 87.0113 132.413 86.8774 131.926 86.6339C131.439 86.3903 131.012 86.043 130.674 85.6163C130.335 85.1897 130.095 84.694 129.969 84.1644L116.801 82.8342L121.145 77.503L132.984 79.5835C133.888 79.431 134.816 79.6154 135.593 80.1017C136.37 80.5879 136.942 81.3423 137.2 82.2218C137.458 83.1014 137.384 84.0449 136.993 84.8738C136.602 85.7026 135.92 86.3591 135.077 86.7189Z" fill="#FFB8B8"/>
<path d="M126.978 84.604L96.2475 81.773L96.2053 81.7246L73.7774 56.0299C72.3014 53.7689 71.7457 51.0293 72.224 48.372C72.7023 45.7147 74.1785 43.3408 76.3503 41.7362C77.552 40.8507 78.9276 40.2296 80.3866 39.914C81.8457 39.5983 83.355 39.5952 84.8154 39.9048C86.2757 40.2144 87.6539 40.8298 88.8592 41.7103C90.0645 42.5909 91.0697 43.7167 91.8084 45.0137L105.622 69.2662L127.316 77.9814L126.978 84.604Z" fill="#E6E6E6"/>
<path d="M204.111 35.191C203.347 29.5941 202.39 23.585 198.442 19.5447C197.189 18.2627 195.69 17.2476 194.034 16.5607C192.379 15.8738 190.601 15.5292 188.808 15.5477C187.016 15.5663 185.246 15.9476 183.605 16.6686C181.963 17.3897 180.485 18.4355 179.259 19.7432C176.385 22.8087 175.116 27.1131 175 31.3133C174.884 35.5135 175.819 39.6669 176.857 43.7385C182.35 43.8482 187.802 42.7753 192.843 40.5926C194.103 40.0455 195.344 39.427 196.675 39.0881C198.007 38.7492 198.957 39.602 200.195 40.1967L200.876 38.8948C201.432 39.9306 203.156 39.6236 203.781 38.6276C204.406 37.6316 204.269 36.3561 204.111 35.191Z" fill="#323B49"/>
<path d="M182.339 66.4307L159.903 66.9104C159.559 66.3149 159.048 65.8324 158.435 65.5215C157.821 65.2106 157.13 65.0848 156.446 65.1594C155.762 65.234 155.114 65.5058 154.582 65.9417C154.05 66.3775 153.655 66.9587 153.447 67.6145C153.239 68.2702 153.226 68.9723 153.41 69.6353C153.594 70.2982 153.966 70.8935 154.482 71.3487C154.998 71.8038 155.636 72.0992 156.316 72.1989C156.997 72.2986 157.692 72.1983 158.317 71.9102C161.293 72.0793 184.573 75.383 185.962 73.2539C187.371 71.093 194.895 63.4667 194.895 63.4667L189.112 55.2341L182.339 66.4307Z" fill="#9E616A"/>
<path d="M187.805 40.7285C193.627 40.7285 198.346 36.0097 198.346 30.1888C198.346 24.3679 193.627 19.6491 187.805 19.6491C181.983 19.6491 177.264 24.3679 177.264 30.1888C177.264 36.0097 181.983 40.7285 187.805 40.7285Z" fill="#9E616A"/>
<path d="M204.689 50.4682C203.447 47.9962 202.843 44.9425 200.195 44.1411C198.406 43.5999 191.173 44.4109 189.543 45.3244C186.832 46.8439 189.289 49.6912 187.69 52.3558C185.951 55.2524 181.226 61.0654 179.487 63.962C178.292 65.9534 182.318 71.7984 181.672 74.0291C181.025 76.2598 180.994 78.7636 182.095 80.8085C183.081 82.6389 181.655 84.2581 182.646 86.0854C183.676 87.9858 184.941 95.0914 183.982 97.0289L183.34 98.9551C189.712 99.3294 195.071 91.7175 201.403 90.9157C202.976 90.7166 204.61 90.4564 205.906 89.5435C207.815 88.1988 208.57 85.7587 209.042 83.4718C211.312 72.293 209.78 60.6763 204.689 50.4682Z" fill="#323B49"/>
<path d="M214.242 76.569C213.355 74.1466 211.748 63.5553 211.748 63.5553L201.69 63.2604L206.607 75.3866L193.189 94.1682C193.189 94.1682 193.214 94.2094 193.259 94.283C192.554 94.1698 191.831 94.2722 191.184 94.5768C190.538 94.8813 189.999 95.3739 189.637 95.99C189.275 96.606 189.108 97.3169 189.157 98.0297C189.206 98.7424 189.469 99.4237 189.912 99.9845C190.354 100.545 190.956 100.959 191.638 101.173C192.32 101.386 193.05 101.388 193.733 101.18C194.417 100.971 195.021 100.561 195.468 100.003C195.914 99.4455 196.182 98.7659 196.236 98.0536C196.285 98.0819 196.343 98.0921 196.399 98.0825C196.455 98.0728 196.506 98.0439 196.543 98.0008C198.036 96.1274 215.13 78.9915 214.242 76.569Z" fill="#9E616A"/>
<path d="M215.266 69.8802C214.343 65.9845 213.413 62.0676 211.857 58.3788C210.3 54.6901 208.072 51.2059 204.938 48.7139C203.936 47.9171 202.816 47.2139 201.56 46.9662C200.304 46.7185 198.889 46.9957 198.007 47.9233C196.595 49.4077 197.02 51.7902 197.538 53.7719C199.064 59.6149 200.591 65.4579 202.117 71.3009C206.526 70.8337 210.934 70.3665 215.342 69.8993L215.266 69.8802Z" fill="#323B49"/>
<path d="M200.722 31.6507C200.334 29.101 199.928 26.53 199.016 24.1292C198.104 21.7284 196.634 19.4798 194.525 18.1198C191.186 15.9666 186.864 16.3819 183.12 17.6204C180.225 18.5783 177.399 20.0342 175.358 22.3748C173.316 24.7154 172.17 28.0551 172.929 31.1155C176.922 30.1722 180.915 29.2289 184.908 28.2856L184.471 28.5945C185.782 29.2482 186.927 30.1919 187.819 31.3541C188.711 32.5163 189.326 33.8663 189.618 35.3018C189.904 36.7547 189.863 38.2529 189.498 39.688C189.134 41.1232 188.455 42.4593 187.51 43.5999C190.234 42.6339 192.957 41.668 195.68 40.7021C197.361 40.1059 199.16 39.4189 200.157 37.8897C201.313 36.1166 201.044 33.7666 200.722 31.6507Z" fill="#323B49"/>
</g>
<defs>
<clipPath id="clip0_3880_138650">
<rect width="277" height="207" fill="white"/>
</clipPath>
</defs>
</svg>
