<svg width="24" height="19" viewBox="0 0 24 19" fill="none" xmlns="http://www.w3.org/2000/svg">
<g clip-path="url(#clip0_25_3360)">
<path d="M12 12.7C13.7674 12.7 15.2 11.2673 15.2 9.5C15.2 7.73269 13.7674 6.3 12 6.3C10.2327 6.3 8.80005 7.73269 8.80005 9.5C8.80005 11.2673 10.2327 12.7 12 12.7Z" fill="black"/>
<path d="M23.9522 9.228C23.0112 6.79412 21.3777 4.68929 19.2536 3.17367C17.1294 1.65804 14.6077 0.798055 12.0001 0.699997C9.39256 0.798055 6.87086 1.65804 4.74671 3.17367C2.62256 4.68929 0.989077 6.79412 0.0481479 9.228C-0.0153983 9.40376 -0.0153983 9.59623 0.0481479 9.772C0.989077 12.2059 2.62256 14.3107 4.74671 15.8263C6.87086 17.342 9.39256 18.2019 12.0001 18.3C14.6077 18.2019 17.1294 17.342 19.2536 15.8263C21.3777 14.3107 23.0112 12.2059 23.9522 9.772C24.0157 9.59623 24.0157 9.40376 23.9522 9.228ZM12.0001 14.7C10.9717 14.7 9.96632 14.395 9.11118 13.8236C8.25605 13.2523 7.58955 12.4401 7.19598 11.49C6.8024 10.5398 6.69942 9.49423 6.90007 8.48553C7.10071 7.47683 7.59596 6.55027 8.32319 5.82304C9.05043 5.09581 9.97698 4.60056 10.9857 4.39991C11.9944 4.19927 13.0399 4.30225 13.9901 4.69582C14.9403 5.0894 15.7524 5.7559 16.3238 6.61103C16.8952 7.46617 17.2001 8.47153 17.2001 9.5C17.198 10.8785 16.6495 12.1999 15.6748 13.1746C14.7 14.1493 13.3786 14.6979 12.0001 14.7Z" fill="black"/>
</g>
<defs>
<clipPath id="clip0_25_3360">
<rect width="24" height="17.6" fill="white" transform="translate(0 0.699997)"/>
</clipPath>
</defs>
</svg>
