<svg width="24" height="24" viewBox="0 0 24 24" fill="none" xmlns="http://www.w3.org/2000/svg">
<path d="M16.7615 19.473L19.8969 16.3862L19.2058 15.694L16.7615 18.104L15.7072 17.0276L15.015 17.7253L16.7615 19.473ZM5.05807 7.22301H16.6081V6.11901H5.05697L5.05807 7.22301ZM17.456 22C16.2261 22 15.1828 21.5713 14.3261 20.7138C13.4687 19.8571 13.04 18.8139 13.04 17.584C13.04 16.3542 13.4687 15.3105 14.3261 14.4531C15.1836 13.5956 16.2268 13.1673 17.456 13.168C18.6851 13.1688 19.7287 13.5971 20.5869 14.4531C21.4451 15.309 21.8734 16.3527 21.8719 17.584C21.8719 18.8131 21.4436 19.8564 20.5869 20.7138C19.7287 21.5713 18.6851 22 17.456 22ZM2 20.5129V2H19.6639V10.3462C19.4844 10.28 19.3062 10.2233 19.1296 10.1762C18.9522 10.1291 18.7623 10.0923 18.5599 10.0658V3.104H3.104V18.6151H10.1077C10.1578 18.9169 10.2226 19.212 10.3021 19.5006C10.3823 19.7891 10.4938 20.0643 10.6366 20.3263L10.599 20.3639L9.34599 19.452L7.86001 20.5129L6.37403 19.452L4.88806 20.5129L3.40097 19.452L2 20.5129ZM5.05807 15.5449H10.2568C10.298 15.3425 10.3488 15.153 10.4091 14.9764C10.4695 14.7997 10.5401 14.6213 10.6211 14.4409H5.05807V15.5449ZM5.05807 11.384H13.1283C13.4889 11.0991 13.8753 10.8618 14.2875 10.6719C14.6996 10.4813 15.1401 10.3506 15.609 10.28H5.05697L5.05807 11.384Z" fill="white"/>
</svg>
